<?xml version="1.0" encoding="utf-8"?>
<!-- Generator: Adobe Illustrator 27.3.1, SVG Export Plug-In . SVG Version: 6.00 Build 0)  -->
<svg version="1.1" id="Layer_1" xmlns="http://www.w3.org/2000/svg" xmlns:xlink="http://www.w3.org/1999/xlink" x="0px" y="0px"
	 viewBox="0 0 50 65" style="enable-background:new 0 0 50 65;" xml:space="preserve">
<style type="text/css">
	.st0{fill:#38AAE0;}
</style>
<path class="st0" d="M16.08,52.95c0.07,0.04,0.8,0.43,0.97,0.51c-1.89-0.83-3.85-1.67-5.41-3.05l-0.11,0.01
	c-6.45-4.84-9.87-13.46-9.38-21.3c0.04,0.34-0.05,1.5,0.08,1.18c0.24-1.88,0.08-3.52,0.71-5.32c0.09-0.94-0.65,2.02-0.32,0.32
	c0.58-1.42,1.21-2.64,1.72-4.13c-0.07-0.11-0.36,0.59-0.41,0.59c0.59-1.65,4.24-6.01,5.72-7.04l-0.22-0.06
	c3.48-3.21,8.32-5.48,12.77-6.35l-0.03,0.13c1.3-0.25,1.71-0.11,2.3-0.58c0.64-0.49,1.91-0.31,2.79-0.29
	c-0.21,0.08-0.41,0.14-1.02,0.17C26.57,7.87,27.8,7.9,28.91,8l0.09,0.21c0.6,0.11,0.94,0.1,1.43,0.13
	c-1.18,0.08,2.81,0.87,2.98,1.17l-0.04-0.23c0.52,0.48,1.27,0.74,2.02,1.22l0.54,0.01c0.46,0.3,1.53,1.07,2.06,1.22l-0.22,0.23
	c1.28,0.63,1.18,0.83,2.3,1.54c-0.03-0.04-0.29-0.45-0.35-0.53c1.48,1.87,3.13,3.36,4.52,5.31c-6.97-8.77-21.45-12.45-30.57-5.03
	c-1.43,0.82-2.72,1.97-3.84,3.22c-0.43-0.25-1.47,1.72-1.74,2.17l-0.15,0.08C7.33,20.08,6.2,21.52,5.86,23l-0.11-0.19
	c-0.7,2-1.37,4.15-1.32,6.29c-0.25-0.3-0.2,1.44-0.22,1.78c-0.01,0-0.19-0.93-0.19-0.93c0.02,1.09-0.21,1.29-0.1,2.27
	c-0.06-0.42-0.13-0.94-0.17-0.86c-0.09,1.14,0.22,1.59,0.23,2.81l0.18-0.14c0.09,2.02,0.14,3.57,1.57,5.4
	c0.03,0.29-0.17,0.21,0.47,1.42C6.29,40.75,6.04,40.3,6,40.1c1.16,2.4,3.2,5.01,5.12,6.88c-1.12-0.88,0.25,0.47,0.09,0.5
	c0.63,0.54,1.53,1.19,2.23,1.63c-1.15-0.65-2.27-1.54-3.3-2.4c0.28,0.49-0.43,0.02-0.29,0.36c0.06,0.11,0.21,0.33,0.57,0.67
	c0.65,0.45-0.32-0.51,0.68,0.28c0.35,0.39,0.81,0.77,1.4,1.18c-1.78-0.77,0.38,0.56,0.69,0.52c0.1,0.12-0.21,0,0.29,0.38
	c1.24,0.78,0.83,0.26,0.93,0.24c0.61,0.55,1.45,1.24,2.37,1.36c0,0.01-1.07-0.16-1.07-0.17c1,0.47,1.48,0.45,2.45,0.88
	c-0.28-0.06-2.07-0.83-1.66-0.41c1.28,0.33,2.91,1.32,4.14,1.2c0,0-0.36,0.27-0.36,0.27c1.39,0.4,0.95,0.07,2.41,0.13
	c-0.59-0.04-0.06,0.12-0.78,0.05c4.42,1.05,10.4,0.01,14.38-2.5c-1.37,0.32-4.07,1.68-5.53,1.85c2.67-0.77,7.07-2.76,9.07-4.88
	c-0.55,0.8-1.82,1.52-2.59,2.12c0.51-0.28,1.32-0.78,1.78-1.1c-0.73,0.59-2.01,1.46-2.86,1.93c2.12-0.23,4.94-3.47,6.42-5.13
	c3.98-4.33,5.93-10.69,5.49-16.68c1.1,5.54-0.83,11.82-4.33,16.26c0.12-0.09,0.11,0.02,0.34-0.28c-3.29,4.66-8.72,7.89-14.21,9.14
	l-0.05-0.05c-1.48,0.23-2.28,0.53-3.74,0.64c0.22-0.07,1.22-0.14,0.77-0.22c-2.23,0.2-4.32-0.22-6.59-0.32
	C18.93,53.73,17.49,53.52,16.08,52.95"/>
<g>
	<g>
		<path class="st0" d="M17.27,38.93l0.08-0.22l-0.06-0.14v-1.68l0.06-0.08c0-0.09-0.01-0.23-0.04-0.4c-0.03-0.17-0.04-0.3-0.04-0.38
			c0-0.21,0.01-0.53,0.03-0.96c0.02-0.43,0.03-0.75,0.03-0.96h-0.04v-5.61l-0.14-0.28h-2.79l-0.26-0.26l-0.02-2.57
			c0.36-0.15,0.7-0.22,1.02-0.22h8.36l0.34,0.26v2.47c0,0.08-0.03,0.15-0.08,0.22c-0.05,0.07-0.12,0.1-0.2,0.1
			c-0.11,0-0.4-0.01-0.88-0.02c-0.48-0.01-0.87-0.01-1.16,0c-0.29,0.01-0.59,0.05-0.88,0.1l-0.04,0.06v2.11l-0.08,0.12l0.08,0.14
			v8.34l-0.28,0.2h-2.71l-0.28-0.26L17.27,38.93z M14.3,25.64c0,0.05,0.05,0.08,0.14,0.08C14.44,25.66,14.39,25.64,14.3,25.64z
			 M14.44,26.18l0.2,0.14l-0.12-0.2L14.44,26.18z M14.64,25.98l0.2,0.14c0.08,0,0.17-0.04,0.28-0.13c0.11-0.09,0.17-0.14,0.2-0.15
			l-0.16-0.14c-0.08,0-0.17,0.04-0.27,0.13C14.79,25.91,14.71,25.96,14.64,25.98z M14.72,26.78c-0.05,0-0.08,0.03-0.08,0.08
			C14.7,26.86,14.72,26.83,14.72,26.78z M14.72,25.38l-0.06,0.06l0.06,0.06l0.04-0.06L14.72,25.38z M14.72,27.54l-0.06,0.06
			l0.06,0.06l0.04-0.06L14.72,27.54z M17.09,26.32l-0.04,0.08l0.04,0.06h-1.42l-0.16-0.3l-0.24,0.12l0.2,0.18
			c-0.16,0.01-0.3,0.1-0.43,0.26c-0.13,0.16-0.19,0.32-0.19,0.48c0.03-0.05,0.07-0.11,0.14-0.17c0.07-0.06,0.11-0.1,0.12-0.11h0.56
			l0.1,0.08l0.1-0.08h2.79v0.96l-0.24,0.26l0.06,0.02l0.18-0.1v4.71l-0.1-0.02l-0.04,0.04l0.14,0.1v1.9l-0.14,0.08l0.14,0.1v0.78
			l-0.08-0.04l-0.06,0.14h0.14v0.56l-0.14,0.04l0.04,0.06l0.1-0.02v1.32l-0.1,0.22c0.37,0,0.57-0.13,0.58-0.38l0.02,0.02l0.08-0.06
			l-0.06-0.06l-0.06-0.14v-0.18v-0.08l0.14-0.08l-0.14-0.2V28.8l0.16-0.18l-0.02-0.08l-0.14,0.14V26.9l1.46,0.02
			c1.15,0,1.84-0.04,2.07-0.12c0.09,0,0.14-0.03,0.14-0.08c0-0.08-0.03-0.16-0.08-0.23c-0.05-0.07-0.11-0.11-0.18-0.11l-0.14,0.08
			h-1.36V26.4l-0.14,0.06h-3.79c0.01-0.01,0.02-0.04,0.02-0.08C17.11,26.34,17.1,26.32,17.09,26.32z M14.92,26.18l-0.06,0.08
			L15,26.4v-0.16L14.92,26.18z M14.98,26.24c-0.03,0.03-0.04,0.05-0.04,0.08L14.98,26.24z M15,27.2l-0.06,0.06L15,27.32V27.2z
			 M15,27.6v0.12h0.06L15,27.6z M15.1,25.38v0.04l0.08-0.04H15.1z M15.74,25.84h-0.1c0,0.12,0.03,0.19,0.1,0.2V25.84z M15.78,26.04
			l-0.04,0.08l0.04,0.06l0.06-0.06L15.78,26.04z M15.87,25.72l-0.04,0.02l0.04,0.02V25.72z M16.01,27.2l-0.14,0.12l0.02,0.02
			l0.14-0.12L16.01,27.2z M15.93,27.06l-0.04,0.08l0.04,0.06l0.06-0.06L15.93,27.06z M15.93,25.84v0.08h0.08v-0.08H15.93z
			 M16.13,26.32l-0.04-0.02l-0.02,0.02l0.04,0.04L16.13,26.32z M16.13,25.72l-0.04,0.06l0.1,0.2L16.13,25.72z M16.13,27.8v0.08
			l0.08-0.08H16.13z M16.55,27.24v-0.06c-0.24,0-0.36,0.08-0.36,0.24L16.55,27.24z M16.49,26.32v-0.1c-0.09,0-0.17,0.03-0.22,0.1
			H16.49z M16.49,25.58l0.18,0.18h0.02C16.69,25.64,16.62,25.58,16.49,25.58z M16.61,25.98l-0.04,0.08l0.04,0.06l0.04-0.06
			L16.61,25.98z M16.67,26.12l-0.02,0.04l0.02,0.02l0.04-0.04L16.67,26.12z M16.83,27.32l-0.06,0.08l0.06,0.06V27.32z M17.15,27.2
			l-0.04,0.06l0.04,0.06l0.06-0.06L17.15,27.2z M17.29,26.24v0.08c0.04,0,0.06-0.01,0.06-0.04c0-0.03-0.01-0.04-0.04-0.04H17.29z
			 M17.35,30.87l-0.04,0.06l0.04,0.04l0.06-0.04L17.35,30.87z M17.35,31.45l-0.04,0.08l0.04,0.08l0.06-0.08L17.35,31.45z
			 M17.35,37.63l-0.04,0.04l0.02,0.02l0.06-0.02L17.35,37.63z M17.35,34.86c0,0.15,0.06,0.22,0.18,0.22
			C17.53,34.93,17.47,34.86,17.35,34.86z M17.51,27.24l-0.06,0.08l0.06,0.08l0.04-0.08L17.51,27.24z M17.57,29.71l-0.04,0.06
			l0.04,0.06V29.71z M17.61,35.26l-0.04,0.06l0.04,0.06l0.06-0.06L17.61,35.26z M17.61,37.43l-0.04,0.08l0.04,0.06l0.1-0.06
			L17.61,37.43z M17.57,38.51v0.06l0.04-0.06H17.57z M17.69,28c-0.05,0-0.08,0.02-0.08,0.06C17.66,28.06,17.69,28.04,17.69,28z
			 M17.69,35.38l-0.06,0.08l0.06,0.06l0.06-0.06L17.69,35.38z M17.77,30.57l-0.04-0.02l-0.04,0.02l0.02,0.04L17.77,30.57z
			 M17.77,38.77l-0.08,0.06h0.08V38.77z M17.77,32.27l-0.06,0.08l0.06,0.06l0.04-0.06L17.77,32.27z M17.77,33.36l-0.06,0.08
			l0.06,0.06l0.04-0.06L17.77,33.36z M17.77,37.69l-0.04,0.04l0.04,0.04V37.69z M17.77,36.74l0.06,0.06v-0.12L17.77,36.74z
			 M17.83,36.94l-0.04,0.08l0.1,0.14l0.06-0.08C17.94,37.06,17.9,37.01,17.83,36.94z M17.89,34.98h-0.08
			c0.03,0.05,0.05,0.1,0.08,0.14V34.98z M17.83,34.52l0.06,0.06l0.28-0.14l-0.14-0.06L17.83,34.52z M17.87,37.01l-0.02,0.08
			C17.85,37.05,17.86,37.02,17.87,37.01z M17.89,37.91l-0.04,0.06l0.04,0.06l0.06-0.06L17.89,37.91z M17.89,25.84l-0.02,0.04
			l0.02,0.04l0.04-0.04L17.89,25.84z M18.03,25.98c-0.07,0.08-0.11,0.15-0.14,0.2C17.97,26.12,18.02,26.06,18.03,25.98z
			 M18.03,29.17l-0.06,0.06h0.06V29.17z M18.03,31.05l-0.04,0.08l0.04,0.06l0.04-0.06L18.03,31.05z M18.03,33.7l-0.04,0.04h0.06
			C18.05,33.72,18.04,33.71,18.03,33.7z M17.99,35.4l0.04-0.08L17.99,35.4l0.04,0.06L17.99,35.4z M18.03,37.29l-0.04,0.08l0.18,0.2
			l0.06-0.06l-0.06-0.06c-0.03-0.04-0.05-0.07-0.08-0.1L18.03,37.29z M18.03,38.43l-0.04,0.04l0.04,0.04V38.43z M18.03,33.44v0.06
			h0.14l-0.1-0.08L18.03,33.44z M18.09,32.35l-0.04-0.02v0.06L18.09,32.35z M18.07,37.35l-0.02,0.08
			C18.05,37.39,18.06,37.36,18.07,37.35z M18.17,35.68l-0.1,0.24l0.02,0.04l0.24-0.14L18.17,35.68z M18.17,36.42l-0.06,0.06
			l0.06,0.04l0.06-0.04L18.17,36.42z M18.17,36.8l-0.06,0.08l0.06,0.06l0.06-0.06L18.17,36.8z M18.17,38.71l-0.06,0.06l0.06,0.06
			l0.06-0.06L18.17,38.71z M18.17,37.69l-0.04,0.08l0.04,0.06V37.69z M18.17,27.14l0.14,0.08v-0.16L18.17,27.14z M18.25,27.32
			l-0.08,0.08h0.08V27.32z M18.25,34.92l-0.06,0.06l0.06,0.06l0.04-0.06L18.25,34.92z M18.31,25.92l-0.04,0.06l0.04,0.2V25.92z
			 M18.35,38.25l-0.06,0.12h0.16C18.44,38.32,18.4,38.28,18.35,38.25z M18.53,34.16c-0.11,0-0.18,0.05-0.22,0.14
			C18.46,34.25,18.53,34.2,18.53,34.16z M18.35,35.32l-0.04,0.08l0.04,0.06l0.06-0.06L18.35,35.32z M18.35,27.8l-0.02-0.02v0.06
			L18.35,27.8z M18.43,28.54l-0.08,0.14h0.08V28.54z M18.43,35.26l-0.04-0.02l-0.04,0.02l0.04,0.04L18.43,35.26z M18.37,25.7
			l0.06-0.06L18.37,25.7l0.06,0.06L18.37,25.7z M18.43,33.16l-0.06,0.06l0.06,0.06l0.06-0.06L18.43,33.16z M18.43,29.45l-0.04,0.02
			l0.04,0.02V29.45z M18.43,27.42l0.08,0.18v-0.1l-0.08-0.18V27.42z M18.57,25.42l-0.04,0.08l0.04,0.08l0.06-0.08L18.57,25.42z
			 M18.57,32.41l-0.04,0.06l0.04,0.06l0.06-0.06L18.57,32.41z M18.57,37.57l-0.04,0.06l0.04,0.06l0.06-0.06L18.57,37.57z
			 M18.57,25.92v0.06l0.08-0.06H18.57z M18.65,38.77l-0.08,0.16h0.08V38.77z M18.77,26.12l-0.06,0.06h0.54L18.77,26.12z
			 M18.71,38.25v0.12h0.06v-0.12H18.71z M18.99,26.04l0.18,0.14c-0.03-0.08-0.07-0.15-0.12-0.2L18.99,26.04z M19.17,29.77
			l-0.04,0.04h0.06C19.19,29.79,19.19,29.78,19.17,29.77z M19.17,36.26l-0.04,0.08l0.04,0.08l0.06-0.08L19.17,36.26z M19.17,36.46
			l0.14,0.08V36.4L19.17,36.46z M19.25,27.4l-0.06,0.08l0.12,0.12l0.06-0.06C19.36,27.51,19.32,27.47,19.25,27.4z M19.25,29.55
			l-0.06,0.08l0.06,0.08l0.04-0.08L19.25,29.55z M19.31,27.24l-0.04-0.02l-0.02,0.02l0.04,0.04L19.31,27.24z M19.25,32.21v0.06h0.06
			L19.25,32.21z M19.25,34.64c0.01,0.15,0.11,0.22,0.3,0.22C19.55,34.75,19.45,34.68,19.25,34.64z M19.25,35.46v0.06h0.06l0.08-0.06
			H19.25z M19.29,27.46l-0.02,0.08C19.27,27.5,19.28,27.47,19.29,27.46z M19.31,31.27v0.12l0.1-0.12H19.31z M19.39,38.57l-0.06,0.08
			l0.06,0.06l0.04-0.06L19.39,38.57z M19.39,38.09l0.12,0.08v-0.26L19.39,38.09z M19.39,38.93v0.12l0.06-0.12H19.39z M19.45,28
			l-0.04,0.02l0.04,0.04V28z M19.45,28.88l-0.04,0.04l0.04,0.04V28.88z M19.45,36.88l-0.04,0.06l0.1,0.14h0.02l0.06,0.08l0.04-0.08
			l-0.04-0.08h-0.02L19.45,36.88z M19.51,33.28l-0.02-0.02l-0.04,0.02l0.02,0.04L19.51,33.28z M19.49,36.94l-0.02,0.06
			C19.47,36.98,19.48,36.96,19.49,36.94z M19.65,29.23v-0.06l-0.16,0.06H19.65z M19.82,36.2h-0.06c-0.16,0-0.24,0.11-0.24,0.32
			C19.63,36.43,19.73,36.32,19.82,36.2z M19.59,31.27l-0.06,0.06l0.12,0.12l0.06-0.06l-0.06-0.08c-0.01,0.01-0.03,0.01-0.04,0
			C19.6,31.3,19.59,31.28,19.59,31.27z M19.59,35.78l0.06,0.16l0.08-0.08v0.02l-0.2-0.16L19.59,35.78z M19.53,37.09l0.04-0.08
			C19.55,37.03,19.53,37.06,19.53,37.09z M19.59,26.12l-0.04,0.04l0.04,0.02V26.12z M19.59,28.54l-0.04,0.08l0.04,0.06V28.54z
			 M19.82,36.8l0.04-0.06l-0.3,0.14L19.82,36.8z M19.59,37.35l0.22,0.34l0.04-0.06L19.59,37.35z M19.65,28l-0.04,0.08l0.04,0.06
			l0.06-0.06L19.65,28z M19.61,31.39l0.02-0.08C19.62,31.32,19.61,31.35,19.61,31.39z M19.65,34.24l-0.04,0.08l0.04,0.06l0.06-0.06
			L19.65,34.24z M19.65,32.53v0.08h0.08L19.65,32.53z M19.65,34.7l0.16,0.08l0.12-0.22C19.8,34.56,19.71,34.61,19.65,34.7z
			 M19.65,38.25v0.06l0.08,0.06L19.65,38.25z M19.65,38.65v0.06h0.48L19.65,38.65z M19.73,33.9l-0.06,0.08l0.06,0.06l0.06-0.06
			L19.73,33.9z M19.73,29.97l-0.04,0.04h0.06L19.73,29.97z M19.8,37.83l0.12,0.3v-0.3H19.8z M19.82,27.14l0.04,0.06l0.06-0.06
			l-0.06-0.08L19.82,27.14z M19.86,28.28l-0.04,0.06h0.46L19.86,28.28z M19.86,28.8l-0.04,0.08l0.04,0.08l0.04-0.08L19.86,28.8z
			 M19.86,37.21L20,37.35l0.02-0.1l-0.1-0.24L19.86,37.21z M19.86,38.51l0.06,0.06l0.22-0.26l-0.02-0.02L19.86,38.51z M19.92,36.14
			l-0.04,0.06l0.04,0.06l0.06-0.06L19.92,36.14z M20,27.6l-0.08,0.22l0.16-0.16L20,27.6z M20,34.1l-0.04-0.02l-0.04,0.02l0.04,0.04
			L20,34.1z M20,31.31l-0.06,0.08L20,31.45l0.06-0.06L20,31.31z M20,36.26v0.16l0.08-0.08L20,36.26z M20.08,26.12l-0.06,0.06
			l0.06,0.06l0.14-0.06L20.08,26.12z M20.08,35.32l-0.06,0.08l0.06,0.06l0.04-0.06L20.08,35.32z M20.14,28.54l-0.06,0.34l0.04,0.02
			l0.08-0.1L20.14,28.54z M20.08,36.46l0.06,0.06v-0.06H20.08z M20.08,37.43l0.06,0.06v-0.06H20.08z M20.14,34.38l-0.04,0.04
			l0.02,0.02l0.06-0.04L20.14,34.38z M20.14,27.32v0.08h0.06L20.14,27.32z M20.14,36.94l0.06,0.06l0.08-0.06l-0.08-0.06L20.14,36.94
			z M20.2,34.92v0.06h0.08v-0.06H20.2z M20.2,37.91l0.08,0.04v-0.04H20.2z M20.28,33.16l-0.06,0.06l0.06,0.06l0.08-0.06L20.28,33.16
			z M20.28,37.43l-0.06,0.08l0.06,0.06l0.04-0.06L20.28,37.43z M20.28,35.94v0.12L20.34,36L20.28,35.94z M20.4,35.32l-0.04,0.08
			l0.04,0.06l0.06-0.06L20.4,35.32z M20.4,37.17l-0.04,0.06l0.04,0.06l0.06-0.06L20.4,37.17z M20.48,27.6l-0.04,0.04h0.06
			L20.48,27.6z M20.76,26.12v0.06l0.06-0.06H20.76z M20.94,25.92l-0.04,0.06l0.04,0.06L21,25.98L20.94,25.92z M21.24,27.06
			l-0.08,0.08l0.08,0.06l0.04-0.06L21.24,27.06z M21.42,27.72v0.18l0.14-0.1L21.42,27.72z M21.5,27.32l-0.04,0.04l0.04,0.04V27.32z
			 M21.98,27.2l-0.06-0.02v0.06L21.98,27.2z M22.04,25.98L22,26.02h0.06L22.04,25.98z M22.04,25.58v0.08l0.12-0.08H22.04z
			 M22.04,27.24l0.12,0.16C22.16,27.29,22.12,27.24,22.04,27.24z M22.24,27.88l-0.06,0.06L22.24,28l0.04-0.06L22.24,27.88z
			 M22.3,26.18l-0.04,0.08l0.04,0.06l0.06-0.06L22.3,26.18z M22.3,26.98l-0.04,0.08l0.04,0.08l0.08,0.06v-0.14L22.3,26.98z
			 M22.36,27.06c-0.03,0.03-0.04,0.05-0.04,0.08C22.35,27.11,22.36,27.09,22.36,27.06z M22.64,25.76v0.16h0.08v-0.16H22.64z
			 M22.78,26.24v0.04c0,0.04,0.02,0.08,0.06,0.12L22.78,26.24z M23.06,27.66l-0.1-0.4l-0.06,0.4
			C22.96,27.65,23.01,27.65,23.06,27.66z M23.12,26.12l-0.04,0.06l0.04,0.06V26.12z M23.12,26.92v0.06h0.04v-0.06H23.12z
			 M23.16,27.94l-0.02-0.02v0.06L23.16,27.94z M23.16,27.54l0.3,0.18l-0.22-0.26L23.16,27.54z M23.24,25.98v0.06l0.08-0.06H23.24z"
			/>
		<path class="st0" d="M26.91,31.83h-0.14V25.6c0-0.15,0.04-0.24,0.13-0.29c0.09-0.05,0.21-0.07,0.37-0.08
			c0.16-0.01,0.27-0.02,0.34-0.05h2.15l0.42,0.36v2.77l-0.1,0.12l-0.04-0.02c0,0.07,0.02,0.16,0.07,0.28
			c0.05,0.12,0.07,0.22,0.07,0.3c0,0.01-0.03,0.1-0.08,0.26l0.08,0.14c0,0.36,0.03,0.8,0.1,1.3c0.13-0.03,0.64-0.65,1.53-1.88
			c0.89-1.23,1.48-1.92,1.77-2.09l-0.04-0.12c0.63-0.95,1.08-1.42,1.36-1.42h2.51c0.37,0,0.56,0.17,0.56,0.52l-0.08,0.32
			c-0.11,0.11-0.58,0.68-1.41,1.7c-0.84,1.03-1.27,1.6-1.31,1.72c-0.03,0.03-0.22,0.26-0.57,0.69c-0.35,0.43-0.65,0.82-0.89,1.15
			c-0.24,0.33-0.36,0.55-0.36,0.66c0.27,0.48,0.54,0.86,0.82,1.14l-0.08,0.14l0.14,0.16l0.14-0.08c0.28,0.23,0.6,0.63,0.95,1.21
			c0.35,0.58,0.65,0.99,0.89,1.21l-0.06,0.32l0.04,0.02l0.06-0.06c0.03,0.03,0.11,0.09,0.24,0.2c0.13,0.11,0.24,0.21,0.33,0.3
			c0.09,0.09,0.13,0.18,0.13,0.26c0,0.01-0.03,0.1-0.08,0.26l0.2-0.08l0.14,0.08c0.04,0.07,0.17,0.23,0.38,0.49
			c0.21,0.26,0.4,0.5,0.55,0.72c0.15,0.22,0.23,0.38,0.23,0.49c0,0.35-0.19,0.52-0.56,0.52c-0.07,0-0.13,0-0.2-0.01
			c-0.07-0.01-0.14-0.02-0.23-0.03c-0.09-0.01-0.16-0.02-0.21-0.02v-0.2c-0.05,0.17-0.15,0.26-0.3,0.26h-1.9
			c-0.56-0.63-1.35-1.63-2.36-3.01c-1.01-1.38-1.8-2.39-2.38-3.03h-0.06v1.02l-0.16,0.14c0,0.01,0.03,0.1,0.08,0.25
			c0.05,0.15,0.08,0.24,0.08,0.27v3.95l-0.34,0.4h-2.59c-0.12,0-0.23-0.04-0.33-0.11c-0.1-0.07-0.15-0.17-0.15-0.29v-6.52
			c0-0.13,0.05-0.29,0.16-0.46L26.91,31.83z M26.93,36.97l-0.06,0.08l0.06,0.08V36.97z M26.91,28.14l0.08,0.1h0.06l-0.12-0.14
			L26.91,28.14z M26.93,25.8l0.04,0.48v-0.42c-0.01,0.05-0.03,0.05-0.04,0C26.93,25.83,26.93,25.81,26.93,25.8z M27.05,31.01
			l-0.08,0.08h0.08V31.01z M26.97,36.02l0.22,0.14v-0.14H26.97z M27.05,29.25l-0.06,0.08l0.06,0.06l0.04-0.06L27.05,29.25z
			 M27.05,27.36l-0.04,0.02l0.04,0.04V27.36z M27.19,35.68h-0.14c0.01,0.05,0.06,0.08,0.14,0.08V35.68z M27.25,27.02v-0.26
			c-0.12,0.05-0.18,0.14-0.18,0.26H27.25z M27.11,29.85l-0.04,0.08l0.04,0.06l0.06-0.06L27.11,29.85z M27.11,28.3v0.06h0.08
			L27.11,28.3z M27.11,36.64l0.08,0.06l0.5-0.06H27.11z M27.11,38.33v0.06h0.08v-0.06H27.11z M27.45,38.53l-0.04-0.02l-0.3,0.06
			L27.45,38.53z M27.19,30.47v0.06h0.06v-0.06H27.19z M27.27,25.88l0.06-0.08l-0.08,0.08l0.08,0.06L27.27,25.88z M27.33,28.58
			l-0.04-0.04l-0.04,0.04H27.33z M27.25,29.25v0.14h0.08v-0.14H27.25z M27.25,35.08l0.2,0.2L27.33,35L27.25,35.08z M27.73,36.74
			l-0.02-0.04c-0.01,0.01-0.05,0.04-0.11,0.09c-0.06,0.05-0.1,0.08-0.13,0.1c-0.03,0.02-0.06,0.05-0.1,0.1
			c-0.04,0.05-0.07,0.09-0.09,0.13c-0.02,0.04-0.03,0.09-0.03,0.14v0.06L27.73,36.74z M27.27,32.17l0.06-0.08L27.27,32.17l0.06,0.06
			L27.27,32.17z M27.33,33.1l-0.06,0.08l0.06,0.06l0.04-0.06L27.33,33.1z M27.33,35.4l-0.06,0.08l0.06,0.08l0.04-0.08L27.33,35.4z
			 M27.33,26.2v0.14h0.06L27.33,26.2z M27.53,31.13c-0.07,0-0.13,0.05-0.2,0.16C27.47,31.29,27.53,31.24,27.53,31.13z M27.39,26.6
			v0.08h0.28c-0.05-0.05-0.13-0.08-0.22-0.08H27.39z M27.39,29.67v0.06h0.06v-0.06H27.39z M27.45,28.84l-0.04,0.08l0.04,0.06
			l0.04-0.06L27.45,28.84z M27.45,31.47l-0.04,0.08l0.04,0.06l0.04-0.06L27.45,31.47z M27.45,33.32l-0.04,0.04l0.04,0.04V33.32z
			 M27.61,27.62c-0.12,0-0.18,0.05-0.18,0.14l0.02,0.08C27.56,27.84,27.61,27.77,27.61,27.62z M27.45,34.82v0.06l0.06-0.06H27.45z
			 M27.51,29.73l-0.04,0.06l0.04,0.06l0.08-0.06L27.51,29.73z M27.51,34.26l-0.04,0.08l0.04,0.06l0.02-0.06L27.51,34.26z
			 M27.51,30.25c0,0.12,0.07,0.18,0.22,0.18C27.73,30.31,27.66,30.25,27.51,30.25z M27.51,35.48l0.2,0.26l0.02-0.08l-0.12-0.2
			L27.51,35.48z M27.61,26.8l-0.08,0.08l0.08,0.06l0.04-0.06L27.61,26.8z M27.61,28.1l-0.08,0.08l0.08,0.06l0.04-0.06L27.61,28.1z
			 M27.61,37.91l-0.08,0.08l0.08,0.08l0.04-0.08L27.61,37.91z M27.71,30.83l-0.06-0.04l-0.04,0.02l0.04,0.04L27.71,30.83z
			 M27.67,26.2l-0.04,0.08c0.04,0.04,0.07,0.09,0.08,0.14l0.06-0.06l-0.06-0.08l-0.02,0.02L27.67,26.2z M27.65,28.56
			c0,0.08,0.07,0.17,0.22,0.28C27.88,28.66,27.8,28.56,27.65,28.56z M27.69,26.3c-0.01,0.01-0.02,0.03-0.02,0.04
			C27.69,26.33,27.69,26.31,27.69,26.3z M27.67,33.24c0,0.12,0.04,0.18,0.12,0.18C27.8,33.3,27.75,33.24,27.67,33.24z M27.71,27.36
			l-0.02-0.04v0.08L27.71,27.36z M27.69,31.43l0.18,0.14v-0.04l-0.08-0.18L27.69,31.43z M27.71,25.66v0.06l0.04-0.02L27.71,25.66z
			 M27.71,37.79v0.08h0.08v-0.08H27.71z M27.8,38.65l-0.04-0.02l-0.04,0.02l0.04,0.04L27.8,38.65z M27.8,25.44v0.1h0.08v-0.1H27.8z
			 M27.8,28.04l0.14,0.08v-0.08H27.8z M27.8,29.53l0.14,0.08v-0.18L27.8,29.53z M27.88,35l-0.08,0.08h0.08V35z M27.88,38.39
			l-0.06,0.08l0.06,0.06l0.04-0.06L27.88,38.39z M27.88,33.8l-0.04,0.04l0.02,0.02l0.04-0.04L27.88,33.8z M28.08,32.35l-0.22,0.24
			l0.28-0.16L28.08,32.35z M27.86,36.94L28,37.13l0.14-0.3l-0.26,0.08L27.86,36.94z M27.94,27.16l-0.04-0.02l-0.02,0.02H27.94z
			 M27.88,32.91v0.06h0.06L27.88,32.91z M28.24,34.6v3.27l0.22,0.12c0.19-0.04,0.28-0.32,0.28-0.84c0-0.13-0.01-0.31-0.03-0.54
			c-0.02-0.23-0.03-0.4-0.03-0.52c0-0.04,0.04-0.08,0.11-0.12c0.07-0.04,0.11-0.09,0.11-0.14h-0.2l-0.02-2.29
			c0-0.13,0.01-0.34,0.02-0.61c0.01-0.27,0.02-0.48,0.02-0.61l0.24-0.1c0-0.03-0.05-0.1-0.14-0.21c-0.09-0.11-0.14-0.25-0.14-0.41
			c0-0.16,0.05-0.33,0.14-0.5c-0.13-0.29-0.18-0.82-0.13-1.56c0.05-0.75,0.04-1.29-0.03-1.62c0.08-0.29,0.12-0.49,0.12-0.6
			c0-0.32-0.21-0.68-0.64-1.08l-0.02,0.08l0.08,0.16v4.07l-0.26,0.2l0.06,0.1l0.14-0.1l0.06,0.02c0,0.66-0.02,1.15-0.06,1.48
			l0.06,0.08v1.66l-0.12,0.16l0.14,0.12c-0.08,0.13-0.12,0.25-0.12,0.34H28.24z M28,33.4l-0.02-0.04l-0.04,0.04l0.02,0.04L28,33.4z
			 M28,26.94l-0.04,0.08L28,27.08l0.06-0.06L28,26.94z M28,28.24l-0.02,0.04L28,28.3l0.04-0.04L28,28.24z M28,25.66v0.06h0.08
			L28,25.66z M28,36.08v0.08l0.08-0.08H28z M28,38.19v0.06h0.1C28.07,38.21,28.04,38.19,28,38.19z M28.14,26.76L28.1,26.8l0.06-0.02
			L28.14,26.76z M28.14,27.36l-0.04,0.08l0.04,0.06l0.04-0.06L28.14,27.36z M28.14,33.1l-0.04,0.06l0.02,0.02l0.04-0.04L28.14,33.1z
			 M28.26,25.66l-0.02-0.02l-0.04,0.02l0.04,0.04L28.26,25.66z M28.42,38.53l-0.04,0.04l0.04,0.04V38.53z M28.54,26.2v0.08h0.08
			V26.2H28.54z M28.82,29.05l-0.06,0.08l0.06,0.06l0.04-0.06L28.82,29.05z M28.76,35.22l0.06-0.08L28.76,35.22l0.06,0.06
			L28.76,35.22z M28.82,37.51l-0.06,0.08l0.06,0.06l0.04-0.06L28.82,37.51z M28.82,27.76l0.06,0.08l0.06-0.08H28.82z M28.88,38.73
			l-0.06,0.08h0.1L28.88,38.73z M28.94,36.08l-0.08,0.16l0.16-0.08L28.94,36.08z M29.02,30.41h-0.14c0.01,0.05,0.06,0.08,0.14,0.08
			V30.41z M28.94,31.75l-0.02-0.02l-0.04,0.02l0.02,0.04L28.94,31.75z M28.88,37.21l0.2,0.2c0.03-0.17,0.05-0.29,0.08-0.36
			l-0.28,0.12V37.21z M28.94,29.39l-0.04,0.04l0.04,0.02l0.04-0.04L28.94,29.39z M28.92,32.43l0.28-0.14
			C29.01,32.29,28.92,32.34,28.92,32.43z M29.02,28.18l0.22-0.2c-0.03,0.01-0.05,0.03-0.08,0.04c-0.03,0.01-0.05,0.03-0.08,0.04
			c-0.03,0.01-0.05,0.03-0.08,0.04c-0.03,0.01-0.05,0.03-0.06,0.06L29.02,28.18z M29.02,30.83l-0.04-0.04l-0.04,0.04H29.02z
			 M29.02,32.71l-0.04-0.02l-0.04,0.02l0.04,0.02C28.99,32.73,29,32.73,29.02,32.71z M29.18,38.07l-0.02-0.1
			C29.05,38.07,29,38.16,29,38.21C29.12,38.17,29.18,38.12,29.18,38.07z M29.16,31.89h-0.14c0.01,0.05,0.06,0.08,0.14,0.08V31.89z
			 M29.1,30.19l-0.06,0.08l0.06,0.06l0.04-0.06L29.1,30.19z M29.1,38.65l-0.06-0.02v0.06L29.1,38.65z M29.32,33.56
			c-0.16,0-0.24,0.11-0.24,0.32C29.24,33.88,29.32,33.77,29.32,33.56z M29.1,27.42v0.14l0.12-0.06l-0.1-0.1L29.1,27.42z M29.1,31.21
			v0.14c0.05-0.05,0.08-0.1,0.08-0.14H29.1z M29.16,25.32l-0.04-0.02v0.04C29.13,25.34,29.14,25.33,29.16,25.32z M29.16,26.6
			l-0.04,0.08l0.04,0.08l0.04-0.08L29.16,26.6z M29.16,30.87l0.1,0.08l0.24-0.12l-0.26-0.1L29.16,30.87z M29.16,34.66v0.28
			l0.12-0.14L29.16,34.66z M29.22,27.02l-0.04,0.08l0.04,0.06l0.04-0.06L29.22,27.02z M29.28,25.66v-0.12
			c-0.05,0-0.08,0.04-0.08,0.12H29.28z M29.2,29.75l0.08,0.1c-0.01-0.05-0.03-0.09-0.06-0.12L29.2,29.75z M29.22,28.78v0.12h0.06
			v-0.12H29.22z M29.36,33.1h-0.14c0.03,0.07,0.07,0.1,0.14,0.1V33.1z M29.22,35.74v0.14c0.05-0.01,0.08-0.06,0.08-0.14H29.22z
			 M29.28,31.67l-0.04,0.08l0.04,0.08l0.06-0.08L29.28,31.67z M29.28,38.45l-0.04,0.08l0.04,0.08l0.06-0.08L29.28,38.45z
			 M29.36,37.59l-0.06,0.06l0.06,0.06l0.04-0.06L29.36,37.59z M29.42,35.28l0.28,0.28l0.06-0.22L29.5,35.2L29.42,35.28z
			 M29.64,32.81c-0.03,0-0.05,0.01-0.06,0.03c-0.01,0.02-0.03,0.05-0.05,0.08c-0.02,0.03-0.04,0.06-0.05,0.07
			c0.03,0,0.05-0.01,0.06-0.03c0.01-0.02,0.03-0.05,0.05-0.08C29.61,32.85,29.63,32.83,29.64,32.81z M29.5,28.24v0.48l0.12-0.14
			L29.5,28.24z M29.5,30.19v0.08h0.06v-0.08H29.5z M29.5,33.4v0.04h0.12V33.4H29.5z M29.62,33.98V33.9c-0.07,0-0.11,0.03-0.12,0.08
			H29.62z M29.7,31.09l-0.1,0.12l0.1,0.08V31.09z M29.7,26.54l-0.06-0.02l-0.02,0.02l0.02,0.04L29.7,26.54z M29.62,29.05l0.4-0.4
			C29.89,28.64,29.75,28.78,29.62,29.05z M29.7,32.31l-0.06-0.04l-0.02,0.02l0.04,0.04L29.7,32.31z M29.98,29.39
			c-0.21,0-0.32,0.08-0.32,0.24C29.87,29.63,29.98,29.55,29.98,29.39z M29.7,37.59l-0.04,0.02l0.04,0.04V37.59z M29.7,34.92V35h0.14
			v-0.08H29.7z M29.76,32.77l-0.04,0.08l0.04,0.06l0.06-0.06L29.76,32.77z M29.76,30.41l0.08,0.06l0.1-0.06H29.76z M29.84,31.89
			l-0.06-0.02l-0.02,0.02l0.04,0.04L29.84,31.89z M29.84,36.76l-0.06,0.08l0.06,0.06l0.04-0.06L29.84,36.76z M29.84,37.79
			l-0.06,0.06l0.06,0.06l0.04-0.06L29.84,37.79z M29.94,32.49l-0.1,0.08l0.12-0.08H29.94z M29.9,30.67l-0.04,0.08l0.04,0.08V30.67z
			 M29.9,31.01l-0.04,0.08l0.04,0.06l0.04-0.06L29.9,31.01z M29.96,33.72l-0.02-0.02l-0.04,0.02l0.02,0.04L29.96,33.72z
			 M29.96,35.14L29.9,35.3c0.05-0.01,0.09-0.05,0.12-0.1L29.96,35.14z M29.96,36.16l-0.02-0.04l-0.04,0.04l0.02,0.04L29.96,36.16z
			 M29.96,38.13l-0.06,0.06h0.06V38.13z M29.96,34.72l-0.04,0.08l0.04,0.08L30,34.8L29.96,34.72z M30.02,32.03h-0.08l0.08,0.12
			V32.03z M29.96,35.68l-0.02,0.08l0.02,0.06V35.68z M29.96,33.86v0.22l0.06-0.1L29.96,33.86z M30.18,31.67v0.18l0.12-0.1
			L30.18,31.67z M30.24,31.29l-0.04,0.06l0.04,0.06l0.04-0.06L30.24,31.29z M30.6,32.47c-0.13,0-0.26,0.11-0.38,0.32
			C30.47,32.69,30.6,32.58,30.6,32.47z M30.8,32.95c-0.16,0-0.24,0.08-0.24,0.24C30.72,33.2,30.8,33.12,30.8,32.95z M30.66,32.03
			c-0.05,0-0.08,0.04-0.08,0.12C30.64,32.15,30.66,32.11,30.66,32.03z M30.7,31.29l-0.08,0.18h0.08V31.29z M30.76,31.83l-0.02,0.04
			h0.06L30.76,31.83z M30.92,31.29l-0.04-0.04v0.06C30.9,31.31,30.91,31.3,30.92,31.29z M31.12,33.02l-0.22,0.26l0.02,0.04
			C31.02,33.3,31.08,33.2,31.12,33.02z M30.92,32.15v0.08l0.06-0.08H30.92z M30.98,32.43v0.34c0.09,0,0.16-0.11,0.2-0.34H30.98z
			 M31.04,30.61l-0.02,0.04h0.04C31.06,30.64,31.06,30.62,31.04,30.61z M32.49,33.92l-0.08,0.16c0.16,0.04,0.33,0.19,0.52,0.45
			c0.19,0.26,0.3,0.39,0.34,0.39c1.1,1.39,1.94,2.41,2.53,3.07l0.2-0.22c0-0.2-0.13-0.42-0.4-0.66c-0.27-0.24-0.43-0.42-0.48-0.54
			c0-0.09-0.07-0.2-0.21-0.33c-0.14-0.13-0.22-0.22-0.25-0.27l0.14-0.22l-0.22,0.08c-0.59-0.64-1.2-1.41-1.82-2.31
			c0-0.15,0.02-0.29,0.06-0.42l-0.2,0.22c-0.44-0.39-0.67-0.67-0.68-0.84l0.06-0.16c-0.11,0.05-0.22,0.03-0.33-0.07
			c-0.11-0.1-0.17-0.21-0.17-0.33l0.12-0.08l0.12,0.06c-0.07-0.09,0.03-0.32,0.28-0.67c0.25-0.35,0.45-0.58,0.6-0.69l0.06,0.08
			l0.24-0.08l-0.18-0.16c0.35-0.52,0.57-0.8,0.68-0.84l0.14,0.06v-0.26c0.07-0.15,0.28-0.44,0.65-0.89c0.37-0.45,0.6-0.68,0.71-0.71
			v-0.16l0.6-0.8c0.03-0.2-0.03-0.3-0.18-0.3c-0.13,0-0.52,0.45-1.17,1.36c-0.65,0.91-1.07,1.36-1.25,1.36l-0.1,0.06l0.14,0.1
			c-0.07,0.08-0.16,0.21-0.28,0.39c-0.12,0.18-0.24,0.34-0.35,0.49c-0.11,0.15-0.22,0.27-0.33,0.38c-0.04,0.04-0.11,0.08-0.2,0.11
			c-0.09,0.03-0.15,0.08-0.18,0.13h0.18l-0.74,1.12c0,0.17,0.22,0.5,0.67,0.99C32.16,33.45,32.42,33.77,32.49,33.92z M31.12,31.21
			v0.08h0.06v-0.08H31.12z M31.18,33.86l-0.04,0.04h0.06C31.2,33.88,31.2,33.87,31.18,33.86z M31.24,30.07l-0.04,0.06l0.04,0.06
			l0.06-0.06L31.24,30.07z M31.32,34.08l-0.06,0.06l0.06,0.04l0.06-0.04L31.32,34.08z M31.32,33.44v0.08h0.08v-0.08H31.32z
			 M31.44,32.91h-0.06c0,0.05,0.02,0.1,0.06,0.14V32.91z M32.01,33.54l-0.28-0.3c0.03,0.15,0.03,0.25,0.02,0.3
			c-0.01,0.05-0.03,0.08-0.06,0.08c-0.03,0-0.05,0.01-0.08,0.02c-0.03,0.01-0.04,0.05-0.04,0.12C31.86,33.7,32.01,33.63,32.01,33.54
			z M31.6,30.41v0.06h0.06L31.6,30.41z M31.73,34.66l-0.06-0.02l-0.06,0.02l0.04,0.04L31.73,34.66z M31.95,29.85l-0.08-0.12
			c-0.05,0.01-0.08,0.05-0.08,0.12H31.95z M32.07,31.61v-0.06c-0.05,0-0.1,0.02-0.14,0.06H32.07z M32.05,34.46
			c0,0.15,0.06,0.22,0.18,0.22C32.23,34.53,32.17,34.46,32.05,34.46z M32.19,29.59l-0.02-0.02l-0.02,0.06L32.19,29.59z M32.27,29.79
			l-0.12,0.28v0.06l0.2-0.34H32.27z M32.27,34.72l-0.04,0.1l0.04,0.06V34.72z M32.33,31.21l0.08,0.14l0.08-0.14H32.33z M32.41,32.03
			h-0.08l0.08,0.12V32.03z M32.35,28.68v0.1l0.14-0.1H32.35z M32.61,35.6c-0.03,0.01-0.07,0.03-0.13,0.06
			c-0.06,0.03-0.1,0.05-0.13,0.08h0.06C32.54,35.74,32.61,35.7,32.61,35.6z M32.41,32.63v0.14c0.09,0,0.14-0.05,0.14-0.14H32.41z
			 M32.49,34.6l-0.06,0.06l0.06,0.06V34.6z M32.67,30.87v0.06h0.08v-0.06H32.67z M32.89,31.57c-0.04,0-0.07,0.01-0.1,0.04
			c-0.03,0.03-0.05,0.07-0.07,0.12c-0.02,0.05-0.04,0.09-0.05,0.1C32.81,31.77,32.89,31.68,32.89,31.57z M32.67,32.43v0.06h0.08
			v-0.06H32.67z M32.75,35.96l-0.06,0.06l0.06,0.06l0.04-0.06L32.75,35.96z M32.89,35.56l-0.08,0.12l0.08,0.06V35.56z M33.01,28.16
			l-0.06-0.02l-0.06,0.02l0.04,0.04L33.01,28.16z M33.01,31.89h-0.08c0,0.05,0.03,0.1,0.08,0.14V31.89z M32.95,30.61v0.12l0.08-0.12
			H32.95z M33.01,27.9l-0.04,0.04l0.06-0.02L33.01,27.9z M32.99,28.74l0.1,0.1l0.18-0.16l-0.12-0.04L32.99,28.74z M33.09,35.4
			l-0.1,0.06l0.04,0.02L33.09,35.4z M33.15,30.33h-0.14c0.07,0.07,0.11,0.1,0.14,0.1V30.33z M33.09,32.71l-0.04,0.02l0.04,0.04
			V32.71z M33.23,33.52l-0.04-0.02l-0.04,0.02l0.04,0.04L33.23,33.52z M33.23,29.93l-0.06,0.08l0.06,0.06V29.93z M33.27,28.42
			l-0.02,0.04l0.02,0.04l0.04-0.02L33.27,28.42z M33.27,31.35l-0.02,0.04h0.06L33.27,31.35z M33.45,33.14
			c-0.09,0-0.15,0.06-0.18,0.18C33.39,33.3,33.45,33.24,33.45,33.14z M33.27,36.16v0.04c0,0.07,0.05,0.1,0.16,0.1L33.27,36.16z
			 M33.55,28.16l-0.14,0.12l0.02,0.02c0.08-0.04,0.15-0.09,0.2-0.14H33.55z M33.55,27.76l-0.08,0.1l0.02,0.04l0.08-0.1L33.55,27.76z
			 M33.47,34.1c0,0.11,0.05,0.16,0.16,0.16C33.63,34.15,33.58,34.1,33.47,34.1z M33.49,30.07v0.06l0.06-0.06H33.49z M33.49,37.13
			v0.04h0.14l-0.1-0.06L33.49,37.13z M33.55,35.4l-0.04,0.08l0.04,0.08l0.06-0.08L33.55,35.4z M33.69,33.32h-0.14
			c0.04,0.05,0.09,0.08,0.14,0.08V33.32z M33.63,27.42v0.08h0.06v-0.08H33.63z M33.69,30.87l-0.04,0.04h0.06
			C33.71,30.9,33.7,30.88,33.69,30.87z M33.69,36.42l-0.04,0.04h0.06C33.71,36.45,33.7,36.44,33.69,36.42z M33.69,36.7l-0.04,0.06
			l0.02,0.06l0.04-0.06L33.69,36.7z M33.83,29.05l-0.14,0.2h0.14V29.05z M33.83,30.41v-0.08c-0.08,0-0.13,0.03-0.14,0.08H33.83z
			 M33.83,30.07l-0.06,0.06l0.06,0.06l0.06-0.06L33.83,30.07z M33.83,37.39l-0.04,0.04h0.06L33.83,37.39z M33.97,29.57l-0.14,0.1
			l0.14,0.06V29.57z M33.97,34.14l-0.08-0.04l-0.06,0.04l0.06,0.04L33.97,34.14z M33.91,36.3l-0.08,0.06h0.18L33.91,36.3z
			 M33.83,36.56v0.08h0.26L33.83,36.56z M33.83,36.97v0.16l0.14-0.08L33.83,36.97z M33.91,27.62v0.06h0.06v-0.06H33.91z
			 M33.91,33.66v0.08l0.1-0.08H33.91z M33.97,26.68l-0.04-0.02v0.06L33.97,26.68z M33.97,34.88l-0.04,0.06L33.97,35V34.88z
			 M34.01,26.42l0.08,0.04v-0.12L34.01,26.42z M34.01,27.08l0.08,0.08v-0.08H34.01z M34.09,34.54l-0.08,0.06h0.08V34.54z
			 M34.01,37.71v0.08l0.08-0.08H34.01z M34.09,35l-0.06,0.08l0.06,0.06l0.06-0.06L34.09,35z M34.09,37.23l0.14,0.16l0.02-0.04
			C34.25,37.31,34.2,37.27,34.09,37.23z M34.17,28.9l-0.06,0.08c0.04,0.04,0.07,0.09,0.1,0.14L34.17,28.9z M34.23,29.93l-0.04-0.02
			v0.06L34.23,29.93z M34.23,37.51l-0.04,0.04l0.04,0.04l0.04-0.04L34.23,37.51z M34.23,34.14l0.14,0.12v-0.2L34.23,34.14z
			 M34.37,37.05v-0.1c-0.03,0-0.07,0.03-0.14,0.1H34.37z M34.39,37.97l-0.16,0.16c0.12-0.08,0.19-0.13,0.2-0.16H34.39z M34.37,28.64
			l0.18-0.24c-0.01,0.01-0.06,0.04-0.14,0.07c-0.08,0.03-0.13,0.06-0.14,0.09L34.37,28.64z M34.29,27.2v0.1
			c0.05,0,0.1-0.03,0.14-0.1H34.29z M34.37,34.54v0.06l0.06-0.06H34.37z M34.43,35.56l0.06,0.06c0.05-0.01,0.08-0.07,0.08-0.16
			L34.43,35.56z M34.61,29.17l-0.14,0.18c0.11,0,0.19-0.03,0.24-0.1L34.61,29.17z M34.49,38.53l0.26,0.08l0.16-0.08l-0.22-0.1
			L34.49,38.53z M34.65,25.72l-0.1,0.06l0.04,0.02L34.65,25.72z M34.65,34.18l-0.04,0.12l0.02,0.1l0.04-0.1L34.65,34.18z
			 M34.93,25.9c-0.15,0-0.22,0.07-0.22,0.22C34.86,26.05,34.93,25.98,34.93,25.9z M34.71,28.42l0.04,0.2
			c0.08-0.19,0.15-0.29,0.22-0.32l-0.14-0.06L34.71,28.42z M34.75,26.76l-0.02,0.04l0.06-0.02L34.75,26.76z M34.75,35.34v0.06h0.1
			L34.75,35.34z M34.91,37.39l-0.04,0.04h0.06L34.91,37.39z M35.11,37.85l-0.14,0.06l0.56,0.06L35.11,37.85z M35.05,28.58
			l-0.04,0.02l0.04,0.04V28.58z M35.11,35.08l-0.04-0.04v0.06L35.11,35.08z M35.17,35.62l-0.06,0.12h0.14L35.17,35.62z M35.29,38.61
			l-0.14,0.14l0.24-0.1L35.29,38.61z M35.23,37.97l-0.04-0.02l-0.02,0.02l0.04,0.04L35.23,37.97z M35.31,25.72v0.08h0.08
			L35.31,25.72z M35.49,35.74l-0.18,0.14l0.04,0.02c0.11-0.07,0.16-0.21,0.16-0.42L35.49,35.74z M35.45,35.2l-0.04,0.06h0.06
			L35.45,35.2z M35.45,36.48l-0.04,0.08l0.04,0.08l0.04-0.08L35.45,36.48z M35.45,38.13v0.2l0.06-0.08L35.45,38.13z M35.51,28.04
			L35.47,28v0.06C35.49,28.06,35.5,28.06,35.51,28.04z M35.51,36.22l-0.04,0.04l0.04,0.04V36.22z M35.59,26.02l-0.06,0.06l0.06,0.04
			l0.04-0.04L35.59,26.02z M35.59,27.56l-0.06,0.06l0.06,0.06l0.04-0.06L35.59,27.56z M35.65,35.48l-0.04,0.08l0.04,0.06l0.06-0.06
			L35.65,35.48z M35.65,35.98v0.12c0.13-0.05,0.22-0.13,0.26-0.22L35.65,35.98z M35.74,27.02l-0.06,0.08l0.06,0.06l0.04-0.06
			L35.74,27.02z M35.74,27.9l-0.06,0.08l0.06,0.06l0.04-0.06L35.74,27.9z M35.74,38.53l-0.04,0.04l0.04,0.04V38.53z M35.8,27.5
			l0.08,0.06l0.14-0.16C35.92,27.4,35.85,27.43,35.8,27.5z M35.8,38.25l0.12,0.08l0.22-0.2L35.8,38.25z M35.86,27.68v0.08h0.02
			L35.86,27.68z M35.92,36.7l-0.02-0.02l-0.04,0.02l0.02,0.04L35.92,36.7z M36.2,36.9c-0.01,0.04-0.13,0.06-0.34,0.06L36.2,36.9z
			 M36,25.8l-0.04,0.04h0.06L36,25.8z M35.96,26.98c0,0.15,0.06,0.22,0.18,0.22C36.1,27.05,36.04,26.98,35.96,26.98z M36.14,36.82
			l-0.06,0.08l0.06,0.06c0.01-0.01,0.02-0.02,0.03-0.01c0.01,0.01,0,0.02-0.01,0.03l0.06,0.06V36.9L36.14,36.82z M36.22,26.76
			l-0.08,0.04h0.12L36.22,26.76z M36.26,38.95h-0.12c0.01,0.04,0.05,0.06,0.12,0.06V38.95z M36.34,37.87l0.22,0.14
			c0-0.11-0.05-0.16-0.16-0.16L36.34,37.87z M36.4,25.86l-0.04,0.08l0.04,0.08l0.06-0.08L36.4,25.86z M36.48,27.5l-0.04-0.02
			L36.4,27.5l0.04,0.04L36.48,27.5z M36.44,37.23l0.1,0.22l0.06-0.1L36.44,37.23z M36.52,27c0,0.08,0.05,0.13,0.16,0.16
			C36.68,27.05,36.62,27,36.52,27z M36.8,25.54l0.1,0.18L37,25.6l-0.04-0.16L36.8,25.54z M36.88,25.94l-0.04,0.04l0.04,0.04V25.94z
			 M36.88,37.91v0.06h0.08L36.88,37.91z M36.96,37.65l-0.06,0.08l0.06,0.06V37.65z M37.44,25.78l-0.22,0.16
			c0.11,0,0.19-0.05,0.26-0.14L37.44,25.78z M37.28,26.2l-0.06,0.08h0.06V26.2z M37.34,37.91l-0.06-0.02l-0.06,0.02l0.06,0.04
			L37.34,37.91z M37.42,38.19l-0.06,0.08l0.06,0.06l0.04-0.06L37.42,38.19z M37.46,38.93l0.08,0.14l0.1-0.08L37.46,38.93z
			 M37.48,38.51l0.26,0.1l-0.14-0.22L37.48,38.51z M37.9,38.25v-0.08c-0.05,0-0.11,0.03-0.16,0.08H37.9z"/>
	</g>
</g>
</svg>
