<?xml version="1.0" encoding="utf-8"?>
<!-- Generator: Adobe Illustrator 27.3.1, SVG Export Plug-In . SVG Version: 6.00 Build 0)  -->
<svg version="1.1" id="Layer_1" xmlns="http://www.w3.org/2000/svg" xmlns:xlink="http://www.w3.org/1999/xlink" x="0px" y="0px"
	 viewBox="0 0 612 792" style="enable-background:new 0 0 612 792;" xml:space="preserve">
<style type="text/css">
	.st0{fill:#38AAE0;}
</style>
<path class="st0" d="M276.21,467.33c0.23,0.12,2.55,1.37,3.08,1.63c-6.01-2.64-12.25-5.32-17.19-9.71l-0.36,0.02
	c-20.5-15.4-31.38-42.78-29.84-67.72c0.13,1.08-0.17,4.76,0.24,3.75c0.76-5.96,0.25-11.18,2.25-16.92c0.27-2.99-2.06,6.43-1,1.03
	c1.84-4.5,3.86-8.39,5.46-13.12c-0.21-0.35-1.14,1.88-1.29,1.87c1.89-5.24,13.48-19.1,18.2-22.38l-0.71-0.18
	c11.05-10.22,26.45-17.43,40.62-20.18l-0.09,0.43c4.14-0.81,5.44-0.35,7.32-1.86c2.02-1.55,6.08-0.98,8.87-0.91
	c-0.66,0.25-1.32,0.45-3.24,0.54c1.01,0.36,4.93,0.44,8.45,0.77l0.28,0.68c1.92,0.36,2.97,0.32,4.56,0.41
	c-3.74,0.24,8.93,2.76,9.48,3.71l-0.14-0.72c1.66,1.52,4.03,2.34,6.42,3.89l1.7,0.04c1.45,0.96,4.85,3.4,6.56,3.87l-0.7,0.74
	c4.07,2.01,3.74,2.65,7.3,4.9c-0.08-0.13-0.91-1.42-1.12-1.7c4.72,5.95,9.97,10.68,14.38,16.9c-22.17-27.89-68.22-39.6-97.2-16.01
	c-4.55,2.62-8.66,6.27-12.21,10.25c-1.38-0.78-4.68,5.49-5.54,6.89l-0.47,0.27c-1.89,4.28-5.5,8.84-6.57,13.56l-0.34-0.6
	c-2.22,6.36-4.36,13.21-4.21,20c-0.8-0.95-0.63,4.58-0.68,5.67c-0.02,0-0.62-2.95-0.59-2.96c0.06,3.46-0.68,4.1-0.33,7.23
	c-0.2-1.32-0.41-2.98-0.53-2.74c-0.3,3.63,0.7,5.05,0.72,8.93l0.58-0.43c0.29,6.42,0.46,11.35,4.99,17.18
	c0.09,0.92-0.56,0.68,1.5,4.51c0.26-0.34-0.52-1.77-0.66-2.41c3.7,7.64,10.16,15.94,16.27,21.89c-3.55-2.8,0.79,1.51,0.3,1.6
	c1.99,1.71,4.86,3.8,7.08,5.19c-3.66-2.06-7.21-4.9-10.5-7.62c0.88,1.56-1.37,0.06-0.93,1.15c0.2,0.35,0.68,1.04,1.82,2.13
	c2.08,1.42-1.01-1.63,2.18,0.91c1.12,1.25,2.58,2.43,4.46,3.75c-5.68-2.45,1.21,1.79,2.18,1.66c0.32,0.37-0.66,0,0.93,1.21
	c3.94,2.48,2.63,0.83,2.96,0.77c1.94,1.73,4.6,3.95,7.52,4.33c-0.01,0.04-3.39-0.52-3.39-0.53c3.17,1.49,4.71,1.44,7.8,2.79
	c-0.9-0.19-6.58-2.63-5.29-1.3c4.07,1.04,9.27,4.21,13.15,3.83c0,0-1.13,0.85-1.14,0.85c4.41,1.27,3.04,0.24,7.67,0.4
	c-1.86-0.14-0.21,0.38-2.48,0.14c14.06,3.35,33.08,0.03,45.72-7.95c-4.34,1.02-12.95,5.35-17.59,5.88
	c8.48-2.44,22.48-8.79,28.83-15.5c-1.75,2.55-5.79,4.82-8.25,6.74c1.64-0.89,4.19-2.48,5.66-3.51c-2.31,1.88-6.39,4.65-9.1,6.12
	c6.74-0.72,15.69-11.03,20.42-16.31c12.67-13.76,18.87-34.01,17.46-53.03c3.49,17.62-2.65,37.59-13.78,51.71
	c0.39-0.29,0.34,0.06,1.09-0.9c-10.47,14.82-27.72,25.09-45.18,29.06l-0.14-0.16c-4.72,0.73-7.23,1.69-11.88,2.04
	c0.69-0.21,3.87-0.45,2.44-0.7c-7.1,0.64-13.74-0.69-20.96-1.02C285.25,469.8,280.68,469.15,276.21,467.33"/>
<g>
	<g>
		<path class="st0" d="M279.98,422.75l0.26-0.7l-0.19-0.45v-5.36l0.19-0.26c0-0.3-0.04-0.72-0.13-1.27
			c-0.09-0.55-0.13-0.96-0.13-1.21c0-0.68,0.03-1.7,0.1-3.06c0.06-1.36,0.1-2.38,0.1-3.06h-0.13v-17.85l-0.45-0.89h-8.86l-0.83-0.83
			l-0.06-8.16c1.15-0.47,2.23-0.7,3.25-0.7h26.59l1.08,0.83v7.84c0,0.26-0.09,0.49-0.25,0.7c-0.17,0.21-0.38,0.32-0.64,0.32
			c-0.34,0-1.28-0.02-2.81-0.06c-1.53-0.04-2.76-0.04-3.7,0c-0.94,0.04-1.87,0.15-2.81,0.32l-0.13,0.19v6.69l-0.26,0.38l0.26,0.45
			v26.52l-0.89,0.64h-8.61l-0.89-0.83L279.98,422.75z M270.54,380.48c0,0.17,0.15,0.25,0.45,0.25
			C270.99,380.56,270.84,380.48,270.54,380.48z M270.99,382.2l0.64,0.45l-0.38-0.64L270.99,382.2z M271.63,381.56l0.64,0.45
			c0.25,0,0.55-0.14,0.89-0.41c0.34-0.28,0.55-0.44,0.64-0.48l-0.51-0.45c-0.25,0-0.54,0.14-0.86,0.41
			C272.1,381.36,271.84,381.52,271.63,381.56z M271.88,384.11c-0.17,0-0.25,0.09-0.25,0.25
			C271.8,384.37,271.88,384.28,271.88,384.11z M271.88,379.65l-0.19,0.19l0.19,0.19l0.13-0.19L271.88,379.65z M271.88,386.53
			l-0.19,0.19l0.19,0.19l0.13-0.19L271.88,386.53z M279.4,382.64l-0.13,0.25l0.13,0.19h-4.53l-0.51-0.96l-0.77,0.38l0.64,0.57
			c-0.51,0.04-0.97,0.32-1.37,0.83c-0.4,0.51-0.61,1.02-0.61,1.53c0.08-0.17,0.23-0.35,0.45-0.54c0.21-0.19,0.34-0.31,0.38-0.35
			h1.79l0.32,0.25l0.32-0.25h8.86v3.06l-0.77,0.83l0.19,0.06l0.57-0.32v14.98l-0.32-0.06l-0.13,0.13l0.45,0.32v6.06l-0.45,0.25
			l0.45,0.32v2.49l-0.25-0.13l-0.19,0.45h0.45v1.79l-0.45,0.13l0.13,0.19l0.32-0.06v4.21l-0.32,0.7c1.19,0,1.81-0.4,1.85-1.21
			l0.06,0.06l0.26-0.19l-0.19-0.19l-0.19-0.45v-0.57v-0.25l0.45-0.26l-0.45-0.64v-25.69l0.51-0.57l-0.06-0.26l-0.45,0.45v-5.67
			l4.65,0.06c3.66,0,5.84-0.13,6.57-0.38c0.3,0,0.45-0.08,0.45-0.25c0-0.25-0.09-0.5-0.26-0.73c-0.17-0.23-0.36-0.35-0.57-0.35
			l-0.45,0.26h-4.34v-0.19l-0.45,0.19H279.4c0.04-0.04,0.06-0.13,0.06-0.26S279.45,382.64,279.4,382.64z M272.52,382.2l-0.19,0.25
			l0.45,0.45v-0.51L272.52,382.2z M272.71,382.39c-0.09,0.09-0.13,0.17-0.13,0.26L272.71,382.39z M272.77,385.45l-0.19,0.19
			l0.19,0.19V385.45z M272.77,386.72v0.38h0.19L272.77,386.72z M273.09,379.65v0.13l0.26-0.13H273.09z M275.13,381.11h-0.32
			c0,0.38,0.11,0.6,0.32,0.64V381.11z M275.26,381.75l-0.13,0.25l0.13,0.19l0.19-0.19L275.26,381.75z M275.52,380.73l-0.13,0.06
			l0.13,0.06V380.73z M275.96,385.45l-0.45,0.38l0.06,0.06l0.45-0.38L275.96,385.45z M275.71,385l-0.13,0.25l0.13,0.19l0.19-0.19
			L275.71,385z M275.71,381.11v0.25h0.25v-0.25H275.71z M276.34,382.64l-0.13-0.06l-0.06,0.06l0.13,0.13L276.34,382.64z
			 M276.34,380.73l-0.13,0.19l0.32,0.64L276.34,380.73z M276.34,387.36v0.25l0.25-0.25H276.34z M277.68,385.58v-0.19
			c-0.77,0-1.15,0.26-1.15,0.77L277.68,385.58z M277.49,382.64v-0.32c-0.3,0-0.53,0.11-0.7,0.32H277.49z M277.49,380.29l0.57,0.57
			h0.06C278.13,380.48,277.92,380.29,277.49,380.29z M277.87,381.56l-0.13,0.25l0.13,0.19l0.13-0.19L277.87,381.56z M278.07,382.01
			l-0.06,0.13l0.06,0.06l0.13-0.13L278.07,382.01z M278.58,385.83l-0.19,0.26l0.19,0.19V385.83z M279.6,385.45l-0.13,0.19l0.13,0.19
			l0.19-0.19L279.6,385.45z M280.04,382.39v0.26c0.13,0,0.19-0.04,0.19-0.13c0-0.08-0.04-0.13-0.13-0.13H280.04z M280.23,397.12
			l-0.13,0.19l0.13,0.13l0.19-0.13L280.23,397.12z M280.23,398.97l-0.13,0.25l0.13,0.25l0.19-0.25L280.23,398.97z M280.23,418.6
			l-0.13,0.13l0.06,0.06l0.19-0.06L280.23,418.6z M280.23,409.81c0,0.47,0.19,0.7,0.57,0.7
			C280.81,410.04,280.62,409.81,280.23,409.81z M280.74,385.58l-0.19,0.25l0.19,0.26l0.13-0.26L280.74,385.58z M280.93,393.42
			l-0.13,0.19l0.13,0.19V393.42z M281.06,411.08l-0.13,0.19l0.13,0.19l0.19-0.19L281.06,411.08z M281.06,417.97l-0.13,0.26
			l0.13,0.19l0.32-0.19L281.06,417.97z M280.93,421.41v0.19l0.13-0.19H280.93z M281.32,388c-0.17,0-0.25,0.06-0.25,0.19
			C281.23,388.19,281.32,388.13,281.32,388z M281.32,411.46l-0.19,0.25l0.19,0.19l0.19-0.19L281.32,411.46z M281.57,396.16
			l-0.13-0.06l-0.13,0.06l0.06,0.13L281.57,396.16z M281.57,422.24l-0.26,0.19h0.26V422.24z M281.57,401.58l-0.19,0.26l0.19,0.19
			l0.13-0.19L281.57,401.58z M281.57,405.02l-0.19,0.26l0.19,0.19l0.13-0.19L281.57,405.02z M281.57,418.8l-0.13,0.13l0.13,0.13
			V418.8z M281.57,415.8l0.19,0.19v-0.38L281.57,415.8z M281.76,416.44l-0.13,0.26l0.32,0.45l0.19-0.26
			C282.1,416.8,281.98,416.65,281.76,416.44z M281.95,410.19h-0.25c0.08,0.17,0.17,0.32,0.25,0.45V410.19z M281.76,408.72l0.19,0.19
			l0.89-0.45l-0.45-0.19L281.76,408.72z M281.89,416.63l-0.06,0.25C281.83,416.75,281.85,416.67,281.89,416.63z M281.95,419.5
			l-0.13,0.19l0.13,0.19l0.19-0.19L281.95,419.5z M281.95,381.11l-0.06,0.13l0.06,0.13l0.13-0.13L281.95,381.11z M282.4,381.56
			c-0.21,0.25-0.36,0.47-0.45,0.64C282.21,382.03,282.36,381.82,282.4,381.56z M282.4,391.7l-0.19,0.19h0.19V391.7z M282.4,397.69
			l-0.13,0.26l0.13,0.19l0.13-0.19L282.4,397.69z M282.4,406.11l-0.13,0.13h0.19C282.46,406.19,282.44,406.15,282.4,406.11z
			 M282.27,411.53l0.13-0.25L282.27,411.53l0.13,0.19L282.27,411.53z M282.4,417.52l-0.13,0.26l0.57,0.64l0.19-0.19l-0.19-0.19
			c-0.09-0.13-0.17-0.23-0.25-0.32L282.4,417.52z M282.4,421.15l-0.13,0.13l0.13,0.13V421.15z M282.4,405.28v0.19h0.45l-0.32-0.25
			L282.4,405.28z M282.59,401.84l-0.13-0.06v0.19L282.59,401.84z M282.53,417.71l-0.06,0.25
			C282.46,417.84,282.49,417.75,282.53,417.71z M282.85,412.42l-0.32,0.77l0.06,0.13l0.77-0.45L282.85,412.42z M282.85,414.78
			l-0.19,0.19l0.19,0.13l0.19-0.13L282.85,414.78z M282.85,415.99l-0.19,0.26l0.19,0.19l0.19-0.19L282.85,415.99z M282.85,422.05
			l-0.19,0.19l0.19,0.19l0.19-0.19L282.85,422.05z M282.85,418.8l-0.13,0.25l0.13,0.19V418.8z M282.85,385.26l0.45,0.25V385
			L282.85,385.26z M283.1,385.83l-0.26,0.26h0.26V385.83z M283.1,410l-0.19,0.19l0.19,0.19l0.13-0.19L283.1,410z M283.29,381.37
			l-0.13,0.19l0.13,0.64V381.37z M283.42,420.58l-0.19,0.38h0.51C283.7,420.79,283.59,420.67,283.42,420.58z M284,407.57
			c-0.34,0-0.57,0.15-0.7,0.45C283.76,407.85,284,407.7,284,407.57z M283.42,411.27l-0.13,0.25l0.13,0.19l0.19-0.19L283.42,411.27z
			 M283.42,387.36l-0.06-0.06v0.19L283.42,387.36z M283.68,389.72l-0.26,0.45h0.26V389.72z M283.68,411.08l-0.13-0.06l-0.13,0.06
			l0.13,0.13L283.68,411.08z M283.49,380.67l0.19-0.19L283.49,380.67l0.19,0.19L283.49,380.67z M283.68,404.39l-0.19,0.19l0.19,0.19
			l0.19-0.19L283.68,404.39z M283.68,392.59l-0.13,0.06l0.13,0.06V392.59z M283.68,386.15l0.25,0.57v-0.32l-0.25-0.57V386.15z
			 M284.12,379.78l-0.13,0.25l0.13,0.25l0.19-0.25L284.12,379.78z M284.12,402.03l-0.13,0.19l0.13,0.19l0.19-0.19L284.12,402.03z
			 M284.12,418.41L284,418.6l0.13,0.19l0.19-0.19L284.12,418.41z M284.12,381.37v0.19l0.25-0.19H284.12z M284.38,422.24l-0.25,0.51
			h0.25V422.24z M284.76,382.01l-0.19,0.19h1.72L284.76,382.01z M284.57,420.58v0.38h0.19v-0.38H284.57z M285.46,381.75l0.57,0.45
			c-0.09-0.26-0.21-0.47-0.38-0.64L285.46,381.75z M286.04,393.61l-0.13,0.13h0.19C286.1,393.7,286.08,393.65,286.04,393.61z
			 M286.04,414.27l-0.13,0.25l0.13,0.25l0.19-0.25L286.04,414.27z M286.04,414.91l0.45,0.25v-0.45L286.04,414.91z M286.29,386.09
			l-0.19,0.25l0.38,0.38l0.19-0.19C286.63,386.45,286.5,386.3,286.29,386.09z M286.29,392.91l-0.19,0.25l0.19,0.26l0.13-0.26
			L286.29,392.91z M286.48,385.58l-0.13-0.06l-0.06,0.06l0.13,0.13L286.48,385.58z M286.29,401.39v0.19h0.19L286.29,401.39z
			 M286.29,409.1c0.04,0.47,0.36,0.7,0.96,0.7C287.25,409.47,286.93,409.23,286.29,409.1z M286.29,411.72v0.19h0.19l0.25-0.19
			H286.29z M286.42,386.28l-0.06,0.26C286.35,386.41,286.38,386.32,286.42,386.28z M286.48,398.39v0.38l0.32-0.38H286.48z
			 M286.74,421.6l-0.19,0.25l0.19,0.19l0.13-0.19L286.74,421.6z M286.74,420.07l0.38,0.26v-0.83L286.74,420.07z M286.74,422.75v0.38
			l0.19-0.38H286.74z M286.93,388l-0.13,0.06l0.13,0.13V388z M286.93,390.81l-0.13,0.13l0.13,0.13V390.81z M286.93,416.24
			l-0.13,0.19l0.32,0.45h0.06l0.19,0.26l0.13-0.26l-0.13-0.25h-0.06L286.93,416.24z M287.12,404.77l-0.06-0.06l-0.13,0.06l0.06,0.13
			L287.12,404.77z M287.06,416.44l-0.06,0.19C286.99,416.54,287.01,416.48,287.06,416.44z M287.57,391.89v-0.19l-0.51,0.19H287.57z
			 M288.08,414.08h-0.19c-0.51,0-0.77,0.34-0.77,1.02C287.5,414.8,287.82,414.46,288.08,414.08z M287.37,398.39l-0.19,0.19
			l0.38,0.38l0.19-0.19l-0.19-0.25c-0.04,0.04-0.09,0.04-0.13,0C287.4,398.48,287.37,398.44,287.37,398.39z M287.37,412.74
			l0.19,0.51l0.25-0.26v0.06l-0.64-0.51L287.37,412.74z M287.18,416.88l0.13-0.25C287.22,416.71,287.18,416.8,287.18,416.88z
			 M287.37,382.01l-0.13,0.13l0.13,0.06V382.01z M287.37,389.72l-0.13,0.26l0.13,0.19V389.72z M288.08,415.99l0.13-0.19l-0.96,0.45
			L288.08,415.99z M287.37,417.71l0.7,1.08l0.13-0.19L287.37,417.71z M287.57,388l-0.13,0.25l0.13,0.19l0.19-0.19L287.57,388z
			 M287.44,398.78l0.06-0.25C287.46,398.56,287.44,398.65,287.44,398.78z M287.57,407.83l-0.13,0.25l0.13,0.19l0.19-0.19
			L287.57,407.83z M287.57,402.41v0.25h0.25L287.57,402.41z M287.57,409.3l0.51,0.25l0.38-0.7
			C288.03,408.85,287.74,409,287.57,409.3z M287.57,420.58v0.19l0.25,0.19L287.57,420.58z M287.57,421.86v0.19h1.53L287.57,421.86z
			 M287.82,406.74l-0.19,0.25l0.19,0.19l0.19-0.19L287.82,406.74z M287.82,394.25l-0.13,0.13h0.19L287.82,394.25z M288.01,419.24
			l0.38,0.96v-0.96H288.01z M288.08,385.26l0.13,0.19l0.19-0.19L288.2,385L288.08,385.26z M288.2,388.89l-0.13,0.19h1.47
			L288.2,388.89z M288.2,390.55l-0.13,0.25l0.13,0.25l0.13-0.25L288.2,390.55z M288.2,417.27l0.45,0.45l0.06-0.32l-0.32-0.77
			L288.2,417.27z M288.2,421.41l0.19,0.19l0.7-0.83l-0.06-0.06L288.2,421.41z M288.39,413.89l-0.13,0.19l0.13,0.19l0.19-0.19
			L288.39,413.89z M288.65,386.72l-0.26,0.7l0.51-0.51L288.65,386.72z M288.65,407.38l-0.13-0.06l-0.13,0.06l0.13,0.13
			L288.65,407.38z M288.65,398.52l-0.19,0.25l0.19,0.19l0.19-0.19L288.65,398.52z M288.65,414.27v0.51l0.25-0.25L288.65,414.27z
			 M288.9,382.01l-0.19,0.19l0.19,0.19l0.45-0.19L288.9,382.01z M288.9,411.27l-0.19,0.25l0.19,0.19l0.13-0.19L288.9,411.27z
			 M289.1,389.72l-0.19,1.08l0.13,0.06l0.25-0.32L289.1,389.72z M288.9,414.91l0.19,0.19v-0.19H288.9z M288.9,417.97l0.19,0.19
			v-0.19H288.9z M289.1,408.28l-0.13,0.13l0.06,0.06l0.19-0.13L289.1,408.28z M289.1,385.83v0.26h0.19L289.1,385.83z M289.1,416.44
			l0.19,0.19l0.26-0.19l-0.26-0.19L289.1,416.44z M289.29,410v0.19h0.26V410H289.29z M289.29,419.5l0.26,0.13v-0.13H289.29z
			 M289.54,404.39l-0.19,0.19l0.19,0.19l0.25-0.19L289.54,404.39z M289.54,417.97l-0.19,0.26l0.19,0.19l0.13-0.19L289.54,417.97z
			 M289.54,413.25v0.38l0.19-0.19L289.54,413.25z M289.92,411.27l-0.13,0.25l0.13,0.19l0.19-0.19L289.92,411.27z M289.92,417.14
			l-0.13,0.19l0.13,0.19l0.19-0.19L289.92,417.14z M290.18,386.72l-0.13,0.13h0.19L290.18,386.72z M291.07,382.01v0.19l0.19-0.19
			H291.07z M291.65,381.37l-0.13,0.19l0.13,0.19l0.19-0.19L291.65,381.37z M292.6,385l-0.25,0.25l0.25,0.19l0.13-0.19L292.6,385z
			 M293.18,387.11v0.57l0.45-0.32L293.18,387.11z M293.43,385.83l-0.13,0.13l0.13,0.13V385.83z M294.96,385.45l-0.19-0.06v0.19
			L294.96,385.45z M295.15,381.56l-0.13,0.13h0.19L295.15,381.56z M295.15,380.29v0.26l0.38-0.26H295.15z M295.15,385.58l0.38,0.51
			C295.54,385.75,295.41,385.58,295.15,385.58z M295.79,387.62l-0.19,0.19l0.19,0.19l0.13-0.19L295.79,387.62z M295.98,382.2
			l-0.13,0.25l0.13,0.19l0.19-0.19L295.98,382.2z M295.98,384.75l-0.13,0.25l0.13,0.25l0.25,0.19V385L295.98,384.75z M296.17,385
			c-0.09,0.09-0.13,0.17-0.13,0.25C296.13,385.17,296.17,385.09,296.17,385z M297.07,380.86v0.51h0.25v-0.51H297.07z M297.51,382.39
			v0.13c0,0.13,0.06,0.26,0.19,0.38L297.51,382.39z M298.4,386.92l-0.32-1.27l-0.19,1.27C298.06,386.87,298.23,386.87,298.4,386.92z
			 M298.6,382.01l-0.13,0.19l0.13,0.19V382.01z M298.6,384.56v0.19h0.13v-0.19H298.6z M298.72,387.81l-0.06-0.06v0.19L298.72,387.81
			z M298.72,386.53l0.96,0.57l-0.7-0.83L298.72,386.53z M298.98,381.56v0.19l0.25-0.19H298.98z"/>
		<path class="st0" d="M310.65,400.18h-0.45v-19.83c0-0.47,0.14-0.77,0.41-0.92c0.28-0.15,0.67-0.23,1.18-0.26
			c0.51-0.02,0.87-0.07,1.08-0.16h6.82l1.34,1.15v8.8l-0.32,0.38l-0.13-0.06c0,0.21,0.07,0.51,0.22,0.89
			c0.15,0.38,0.22,0.7,0.22,0.96c0,0.04-0.09,0.32-0.25,0.83l0.25,0.45c0,1.15,0.11,2.53,0.32,4.14c0.42-0.08,2.05-2.08,4.88-5.99
			c2.83-3.91,4.71-6.12,5.64-6.63l-0.13-0.38c2-3.02,3.44-4.53,4.34-4.53h7.97c1.19,0,1.79,0.55,1.79,1.66l-0.25,1.02
			c-0.34,0.34-1.84,2.15-4.5,5.42c-2.66,3.27-4.05,5.1-4.18,5.48c-0.09,0.09-0.69,0.82-1.82,2.2c-1.13,1.38-2.07,2.6-2.84,3.67
			c-0.77,1.06-1.15,1.76-1.15,2.1c0.85,1.53,1.72,2.74,2.61,3.63l-0.26,0.45l0.45,0.51l0.45-0.26c0.89,0.72,1.9,2.01,3.03,3.86
			c1.12,1.85,2.07,3.14,2.84,3.86l-0.19,1.02l0.13,0.06l0.19-0.19c0.08,0.09,0.34,0.3,0.76,0.64c0.42,0.34,0.77,0.66,1.05,0.96
			c0.28,0.3,0.41,0.57,0.41,0.83c0,0.04-0.09,0.32-0.25,0.83l0.64-0.25l0.45,0.25c0.13,0.21,0.53,0.73,1.21,1.56
			c0.68,0.83,1.26,1.59,1.75,2.3c0.49,0.7,0.73,1.22,0.73,1.56c0,1.11-0.6,1.66-1.79,1.66c-0.21,0-0.43-0.01-0.64-0.03
			c-0.21-0.02-0.46-0.05-0.73-0.1c-0.28-0.04-0.5-0.06-0.67-0.06V423c-0.17,0.55-0.49,0.83-0.96,0.83h-6.06
			c-1.79-2-4.28-5.19-7.49-9.56c-3.21-4.38-5.73-7.59-7.56-9.63h-0.19v3.25l-0.51,0.45c0,0.04,0.08,0.31,0.25,0.8
			c0.17,0.49,0.25,0.78,0.25,0.86v12.56l-1.08,1.27h-8.23c-0.38,0-0.73-0.12-1.05-0.35s-0.48-0.54-0.48-0.92v-20.72
			c0-0.42,0.17-0.91,0.51-1.47L310.65,400.18z M310.71,416.5l-0.19,0.25l0.19,0.26V416.5z M310.65,388.45l0.25,0.32h0.19l-0.38-0.45
			L310.65,388.45z M310.71,380.99l0.13,1.53v-1.34c-0.04,0.17-0.09,0.17-0.13,0C310.71,381.09,310.71,381.03,310.71,380.99z
			 M311.09,397.56l-0.26,0.25h0.26V397.56z M310.84,413.5l0.7,0.45v-0.45H310.84z M311.09,391.95l-0.19,0.25l0.19,0.19l0.13-0.19
			L311.09,391.95z M311.09,385.96l-0.13,0.06l0.13,0.13V385.96z M311.54,412.42h-0.45c0.04,0.17,0.19,0.25,0.45,0.25V412.42z
			 M311.73,384.88v-0.83c-0.38,0.17-0.57,0.45-0.57,0.83H311.73z M311.28,393.87l-0.13,0.25l0.13,0.19l0.19-0.19L311.28,393.87z
			 M311.28,388.96v0.19h0.26L311.28,388.96z M311.28,415.48l0.26,0.19l1.59-0.19H311.28z M311.28,420.84v0.19h0.26v-0.19H311.28z
			 M312.37,421.47l-0.13-0.06l-0.96,0.19L312.37,421.47z M311.54,395.84v0.19h0.19v-0.19H311.54z M311.79,381.24l0.19-0.25
			l-0.26,0.25l0.26,0.19L311.79,381.24z M311.98,389.85l-0.13-0.13l-0.13,0.13H311.98z M311.73,391.95v0.45h0.26v-0.45H311.73z
			 M311.73,410.51l0.64,0.64l-0.38-0.89L311.73,410.51z M313.26,415.8l-0.06-0.13c-0.04,0.04-0.16,0.14-0.35,0.29
			c-0.19,0.15-0.33,0.25-0.41,0.32c-0.09,0.06-0.19,0.17-0.32,0.32c-0.13,0.15-0.22,0.29-0.29,0.41c-0.06,0.13-0.1,0.28-0.1,0.45
			v0.19L313.26,415.8z M311.79,401.26l0.19-0.26L311.79,401.26l0.19,0.19L311.79,401.26z M311.98,404.19l-0.19,0.25l0.19,0.19
			l0.13-0.19L311.98,404.19z M311.98,411.53l-0.19,0.25l0.19,0.26l0.13-0.26L311.98,411.53z M311.98,382.26v0.45h0.19L311.98,382.26
			z M312.62,397.95c-0.21,0-0.43,0.17-0.64,0.51C312.41,398.46,312.62,398.29,312.62,397.95z M312.17,383.54v0.25h0.89
			c-0.17-0.17-0.4-0.25-0.7-0.25H312.17z M312.17,393.29v0.19h0.19v-0.19H312.17z M312.37,390.68l-0.13,0.25l0.13,0.19l0.13-0.19
			L312.37,390.68z M312.37,399.03l-0.13,0.26l0.13,0.19l0.13-0.19L312.37,399.03z M312.37,404.9l-0.13,0.13l0.13,0.13V404.9z
			 M312.88,386.79c-0.38,0-0.57,0.15-0.57,0.45l0.06,0.25C312.71,387.49,312.88,387.26,312.88,386.79z M312.37,409.68v0.19
			l0.19-0.19H312.37z M312.56,393.48l-0.13,0.19l0.13,0.19l0.25-0.19L312.56,393.48z M312.56,407.89l-0.13,0.26l0.13,0.19l0.06-0.19
			L312.56,407.89z M312.56,395.14c0,0.38,0.23,0.57,0.7,0.57C313.26,395.33,313.03,395.14,312.56,395.14z M312.56,411.78l0.64,0.83
			l0.06-0.25l-0.38-0.64L312.56,411.78z M312.88,384.17l-0.26,0.26l0.26,0.19l0.13-0.19L312.88,384.17z M312.88,388.32l-0.26,0.25
			l0.26,0.19l0.13-0.19L312.88,388.32z M312.88,419.5l-0.26,0.25l0.26,0.26l0.13-0.26L312.88,419.5z M313.2,396.99l-0.19-0.13
			l-0.13,0.06l0.13,0.13L313.2,396.99z M313.07,382.26l-0.13,0.25c0.13,0.13,0.21,0.28,0.26,0.45l0.19-0.19l-0.19-0.26l-0.06,0.06
			L313.07,382.26z M313,389.79c0,0.25,0.23,0.55,0.7,0.89C313.71,390.08,313.47,389.79,313,389.79z M313.13,382.58
			c-0.04,0.04-0.06,0.09-0.06,0.13C313.11,382.67,313.13,382.62,313.13,382.58z M313.07,404.64c0,0.38,0.13,0.57,0.38,0.57
			C313.45,404.83,313.32,404.64,313.07,404.64z M313.2,385.96l-0.06-0.13v0.26L313.2,385.96z M313.13,398.9l0.57,0.45v-0.13
			l-0.25-0.57L313.13,398.9z M313.2,380.54v0.19l0.13-0.06L313.2,380.54z M313.2,419.11v0.25h0.25v-0.25H313.2z M313.45,421.86
			l-0.13-0.06l-0.13,0.06l0.13,0.13L313.45,421.86z M313.45,379.84v0.32h0.25v-0.32H313.45z M313.45,388.13l0.45,0.25v-0.25H313.45z
			 M313.45,392.85l0.45,0.25v-0.57L313.45,392.85z M313.71,410.25l-0.25,0.25h0.25V410.25z M313.71,421.03l-0.19,0.25l0.19,0.19
			l0.13-0.19L313.71,421.03z M313.71,406.43l-0.13,0.13l0.06,0.06l0.13-0.13L313.71,406.43z M314.34,401.84l-0.7,0.77l0.89-0.51
			L314.34,401.84z M313.64,416.44l0.45,0.57l0.45-0.96l-0.83,0.25L313.64,416.44z M313.9,385.32l-0.13-0.06l-0.06,0.06H313.9z
			 M313.71,403.62v0.19h0.19L313.71,403.62z M314.85,408.98v10.39l0.7,0.38c0.59-0.13,0.89-1.02,0.89-2.68c0-0.42-0.03-1-0.1-1.72
			c-0.06-0.72-0.1-1.28-0.1-1.66c0-0.13,0.12-0.26,0.35-0.38c0.23-0.13,0.35-0.28,0.35-0.45h-0.64l-0.06-7.27
			c0-0.42,0.02-1.07,0.06-1.94c0.04-0.87,0.06-1.52,0.06-1.94l0.77-0.32c0-0.08-0.15-0.31-0.45-0.67c-0.3-0.36-0.45-0.8-0.45-1.31
			c0-0.51,0.15-1.04,0.45-1.59c-0.43-0.93-0.56-2.59-0.41-4.97c0.15-2.38,0.12-4.1-0.1-5.16c0.25-0.93,0.38-1.57,0.38-1.91
			c0-1.02-0.68-2.17-2.04-3.44l-0.06,0.25l0.25,0.51v12.94l-0.83,0.64l0.19,0.32l0.45-0.32l0.19,0.06c0,2.08-0.06,3.66-0.19,4.72
			l0.19,0.26V407l-0.38,0.51l0.45,0.38c-0.25,0.43-0.38,0.79-0.38,1.08H314.85z M314.09,405.15l-0.06-0.13l-0.13,0.13l0.06,0.13
			L314.09,405.15z M314.09,384.62l-0.13,0.26l0.13,0.19l0.19-0.19L314.09,384.62z M314.09,388.77l-0.06,0.13l0.06,0.06l0.13-0.13
			L314.09,388.77z M314.09,380.54v0.19h0.25L314.09,380.54z M314.09,413.69v0.25l0.25-0.25H314.09z M314.09,420.39v0.19h0.32
			C314.32,420.45,314.22,420.39,314.09,420.39z M314.53,384.05l-0.13,0.13l0.19-0.06L314.53,384.05z M314.53,385.96l-0.13,0.26
			l0.13,0.19l0.13-0.19L314.53,385.96z M314.53,404.19l-0.13,0.19l0.06,0.06l0.13-0.13L314.53,404.19z M314.92,380.54l-0.06-0.06
			l-0.13,0.06l0.13,0.13L314.92,380.54z M315.43,421.47l-0.13,0.13l0.13,0.13V421.47z M315.81,382.26v0.25h0.25v-0.25H315.81z
			 M316.7,391.32l-0.19,0.25l0.19,0.19l0.13-0.19L316.7,391.32z M316.51,410.95l0.19-0.25L316.51,410.95l0.19,0.19L316.51,410.95z
			 M316.7,418.22l-0.19,0.25l0.19,0.19l0.13-0.19L316.7,418.22z M316.7,387.24l0.19,0.25l0.19-0.25H316.7z M316.89,422.11
			l-0.19,0.25h0.32L316.89,422.11z M317.08,413.69l-0.26,0.51l0.51-0.25L317.08,413.69z M317.34,395.65h-0.45
			c0.04,0.17,0.19,0.25,0.45,0.25V395.65z M317.08,399.92l-0.06-0.06l-0.13,0.06l0.06,0.13L317.08,399.92z M316.89,417.27l0.64,0.64
			c0.08-0.55,0.17-0.93,0.25-1.15l-0.89,0.38V417.27z M317.08,392.4l-0.13,0.13l0.13,0.06l0.13-0.13L317.08,392.4z M317.02,402.09
			l0.89-0.45C317.32,401.64,317.02,401.79,317.02,402.09z M317.34,388.57l0.7-0.64c-0.09,0.04-0.17,0.09-0.25,0.13
			c-0.09,0.04-0.17,0.09-0.25,0.13c-0.09,0.04-0.17,0.09-0.26,0.13c-0.09,0.04-0.15,0.11-0.19,0.19L317.34,388.57z M317.34,396.99
			l-0.13-0.13l-0.13,0.13H317.34z M317.34,402.98l-0.13-0.06l-0.13,0.06l0.13,0.06C317.25,403.05,317.3,403.03,317.34,402.98z
			 M317.85,420.01l-0.06-0.32c-0.34,0.34-0.51,0.6-0.51,0.77C317.66,420.33,317.85,420.18,317.85,420.01z M317.79,400.37h-0.45
			c0.04,0.17,0.19,0.26,0.45,0.26V400.37z M317.59,394.95l-0.19,0.25l0.19,0.19l0.13-0.19L317.59,394.95z M317.59,421.86l-0.19-0.06
			v0.19L317.59,421.86z M318.3,405.66c-0.51,0-0.77,0.34-0.77,1.02C318.04,406.68,318.3,406.34,318.3,405.66z M317.59,386.15v0.45
			l0.38-0.19l-0.32-0.32L317.59,386.15z M317.59,398.2v0.45c0.17-0.17,0.26-0.32,0.26-0.45H317.59z M317.79,379.46l-0.13-0.06v0.13
			C317.7,379.52,317.74,379.5,317.79,379.46z M317.79,383.54l-0.13,0.25l0.13,0.25l0.13-0.25L317.79,383.54z M317.79,397.12
			l0.32,0.25l0.77-0.38l-0.83-0.32L317.79,397.12z M317.79,409.17v0.89l0.38-0.45L317.79,409.17z M317.98,384.88l-0.13,0.25
			l0.13,0.19l0.13-0.19L317.98,384.88z M318.17,380.54v-0.38c-0.17,0-0.25,0.13-0.25,0.38H318.17z M317.91,393.55l0.25,0.32
			c-0.04-0.17-0.11-0.3-0.19-0.38L317.91,393.55z M317.98,390.49v0.38h0.19v-0.38H317.98z M318.42,404.19h-0.45
			c0.08,0.21,0.23,0.32,0.45,0.32V404.19z M317.98,412.61v0.45c0.17-0.04,0.25-0.19,0.25-0.45H317.98z M318.17,399.67l-0.13,0.25
			l0.13,0.26l0.19-0.26L318.17,399.67z M318.17,421.22l-0.13,0.25l0.13,0.25l0.19-0.25L318.17,421.22z M318.42,418.48l-0.19,0.19
			l0.19,0.19l0.13-0.19L318.42,418.48z M318.61,411.14l0.89,0.89l0.19-0.7l-0.83-0.45L318.61,411.14z M319.32,403.3
			c-0.09,0-0.15,0.03-0.19,0.1c-0.04,0.06-0.1,0.15-0.16,0.25c-0.06,0.11-0.12,0.18-0.16,0.22c0.08,0,0.15-0.03,0.19-0.1
			c0.04-0.06,0.1-0.15,0.16-0.25C319.22,403.42,319.27,403.35,319.32,403.3z M318.87,388.77v1.53l0.38-0.45L318.87,388.77z
			 M318.87,394.95v0.25h0.19v-0.25H318.87z M318.87,405.15v0.13h0.38v-0.13H318.87z M319.25,407v-0.25c-0.21,0-0.34,0.09-0.38,0.25
			H319.25z M319.51,397.82l-0.32,0.38l0.32,0.25V397.82z M319.51,383.35l-0.19-0.06l-0.06,0.06l0.06,0.13L319.51,383.35z
			 M319.25,391.32l1.28-1.28C320.1,390.04,319.68,390.47,319.25,391.32z M319.51,401.71l-0.19-0.13l-0.06,0.06l0.13,0.13
			L319.51,401.71z M320.4,392.4c-0.68,0-1.02,0.25-1.02,0.76C320.06,393.16,320.4,392.91,320.4,392.4z M319.51,418.48l-0.13,0.06
			l0.13,0.13V418.48z M319.51,410v0.26h0.45V410H319.51z M319.7,403.17l-0.13,0.25l0.13,0.19l0.19-0.19L319.7,403.17z M319.7,395.65
			l0.26,0.19l0.32-0.19H319.7z M319.95,400.37l-0.19-0.06l-0.06,0.06l0.13,0.13L319.95,400.37z M319.95,415.86l-0.19,0.26l0.19,0.19
			l0.13-0.19L319.95,415.86z M319.95,419.11l-0.19,0.19l0.19,0.19l0.13-0.19L319.95,419.11z M320.27,402.28l-0.32,0.25l0.38-0.25
			H320.27z M320.14,396.48l-0.13,0.26l0.13,0.25V396.48z M320.14,397.56l-0.13,0.25l0.13,0.19l0.13-0.19L320.14,397.56z
			 M320.34,406.17l-0.06-0.06l-0.13,0.06l0.06,0.13L320.34,406.17z M320.34,410.7l-0.19,0.51c0.17-0.04,0.3-0.15,0.38-0.32
			L320.34,410.7z M320.34,413.95l-0.06-0.13l-0.13,0.13l0.06,0.13L320.34,413.95z M320.34,420.2l-0.19,0.19h0.19V420.2z
			 M320.34,409.36l-0.13,0.25l0.13,0.25l0.13-0.25L320.34,409.36z M320.53,400.82h-0.26l0.26,0.38V400.82z M320.34,412.42
			l-0.06,0.25l0.06,0.19V412.42z M320.34,406.62v0.7l0.19-0.32L320.34,406.62z M321.04,399.67v0.57l0.38-0.32L321.04,399.67z
			 M321.23,398.46l-0.13,0.19l0.13,0.19l0.13-0.19L321.23,398.46z M322.38,402.22c-0.43,0-0.83,0.34-1.21,1.02
			C321.97,402.9,322.38,402.56,322.38,402.22z M323.01,403.75c-0.51,0-0.77,0.25-0.77,0.77
			C322.76,404.51,323.01,404.26,323.01,403.75z M322.57,400.82c-0.17,0-0.25,0.13-0.25,0.38
			C322.48,401.2,322.57,401.07,322.57,400.82z M322.69,398.46l-0.25,0.57h0.25V398.46z M322.89,400.18l-0.06,0.13h0.19
			L322.89,400.18z M323.4,398.46l-0.13-0.13v0.19C323.31,398.52,323.35,398.5,323.4,398.46z M324.03,403.94l-0.7,0.83l0.06,0.13
			C323.69,404.85,323.91,404.54,324.03,403.94z M323.4,401.2v0.25l0.19-0.25H323.4z M323.59,402.09v1.08c0.3,0,0.51-0.36,0.64-1.08
			H323.59z M323.78,396.29l-0.06,0.13h0.13C323.84,396.37,323.82,396.33,323.78,396.29z M328.37,406.81l-0.25,0.51
			c0.51,0.13,1.06,0.61,1.66,1.43c0.59,0.83,0.96,1.24,1.08,1.24c3.48,4.42,6.16,7.67,8.03,9.75l0.64-0.7c0-0.64-0.42-1.34-1.27-2.1
			c-0.85-0.77-1.36-1.34-1.53-1.72c0-0.3-0.22-0.65-0.67-1.05c-0.45-0.4-0.71-0.69-0.8-0.86l0.45-0.7l-0.7,0.25
			c-1.87-2.04-3.8-4.48-5.8-7.33c0-0.47,0.06-0.91,0.19-1.34l-0.64,0.7c-1.4-1.23-2.13-2.12-2.17-2.68l0.19-0.51
			c-0.34,0.17-0.69,0.1-1.05-0.22c-0.36-0.32-0.54-0.67-0.54-1.05l0.38-0.25l0.38,0.19c-0.21-0.3,0.08-1.01,0.89-2.14
			c0.81-1.13,1.44-1.86,1.91-2.2l0.19,0.26l0.77-0.26l-0.57-0.51c1.1-1.66,1.83-2.55,2.17-2.68l0.45,0.19v-0.83
			c0.21-0.47,0.9-1.41,2.07-2.84c1.17-1.42,1.92-2.18,2.26-2.26v-0.51l1.91-2.55c0.08-0.64-0.11-0.96-0.57-0.96
			c-0.43,0-1.67,1.45-3.73,4.34c-2.06,2.89-3.39,4.34-3.98,4.34l-0.32,0.19l0.45,0.32c-0.21,0.26-0.51,0.67-0.89,1.24
			c-0.38,0.57-0.76,1.09-1.12,1.56c-0.36,0.47-0.71,0.87-1.05,1.21c-0.13,0.13-0.34,0.25-0.64,0.35c-0.3,0.11-0.49,0.25-0.57,0.41
			h0.57l-2.36,3.57c0,0.55,0.71,1.6,2.14,3.16C327.34,405.33,328.16,406.34,328.37,406.81z M324.03,398.2v0.25h0.19v-0.25H324.03z
			 M324.23,406.62l-0.13,0.13h0.19C324.29,406.7,324.27,406.66,324.23,406.62z M324.42,394.57l-0.13,0.19l0.13,0.19l0.19-0.19
			L324.42,394.57z M324.67,407.32l-0.19,0.19l0.19,0.13l0.19-0.13L324.67,407.32z M324.67,405.28v0.25h0.25v-0.25H324.67z
			 M325.05,403.62h-0.19c0,0.17,0.06,0.32,0.19,0.45V403.62z M326.84,405.6l-0.89-0.96c0.08,0.47,0.11,0.79,0.06,0.96
			c-0.04,0.17-0.11,0.25-0.19,0.25c-0.09,0-0.17,0.02-0.25,0.06c-0.09,0.04-0.13,0.17-0.13,0.38
			C326.37,406.13,326.84,405.9,326.84,405.6z M325.56,395.65v0.19h0.19L325.56,395.65z M325.95,409.17l-0.19-0.06l-0.19,0.06
			l0.13,0.13L325.95,409.17z M326.65,393.87l-0.25-0.38c-0.17,0.04-0.26,0.17-0.26,0.38H326.65z M327.03,399.48v-0.19
			c-0.17,0-0.32,0.06-0.45,0.19H327.03z M326.97,408.53c0,0.47,0.19,0.7,0.57,0.7C327.54,408.76,327.35,408.53,326.97,408.53z
			 M327.41,393.04l-0.06-0.06l-0.06,0.19L327.41,393.04z M327.67,393.67l-0.38,0.89v0.19l0.64-1.08H327.67z M327.67,409.36
			l-0.13,0.32l0.13,0.19V409.36z M327.86,398.2l0.25,0.45l0.25-0.45H327.86z M328.11,400.82h-0.25l0.25,0.38V400.82z M327.92,390.17
			v0.32l0.45-0.32H327.92z M328.75,412.16c-0.09,0.04-0.22,0.11-0.41,0.19c-0.19,0.09-0.33,0.17-0.41,0.25h0.19
			C328.54,412.61,328.75,412.46,328.75,412.16z M328.11,402.73v0.45c0.3,0,0.45-0.15,0.45-0.45H328.11z M328.37,408.98l-0.19,0.19
			l0.19,0.19V408.98z M328.94,397.12v0.19h0.25v-0.19H328.94z M329.64,399.35c-0.13,0-0.23,0.04-0.32,0.13
			c-0.09,0.09-0.16,0.21-0.22,0.38c-0.06,0.17-0.12,0.28-0.16,0.32C329.41,399.97,329.64,399.69,329.64,399.35z M328.94,402.09v0.19
			h0.25v-0.19H328.94z M329.2,413.31l-0.19,0.19l0.19,0.19l0.13-0.19L329.2,413.31z M329.64,412.04l-0.25,0.38l0.25,0.19V412.04z
			 M330.03,388.51l-0.19-0.06l-0.19,0.06l0.13,0.13L330.03,388.51z M330.03,400.37h-0.25c0,0.17,0.08,0.32,0.25,0.45V400.37z
			 M329.84,396.29v0.38l0.25-0.38H329.84z M330.03,387.68l-0.13,0.13l0.19-0.06L330.03,387.68z M329.96,390.36l0.32,0.32l0.57-0.51
			l-0.38-0.13L329.96,390.36z M330.28,411.53l-0.32,0.19l0.13,0.06L330.28,411.53z M330.47,395.4h-0.45
			c0.21,0.21,0.36,0.32,0.45,0.32V395.4z M330.28,402.98l-0.13,0.06l0.13,0.13V402.98z M330.73,405.53l-0.13-0.06l-0.13,0.06
			l0.13,0.13L330.73,405.53z M330.73,394.12l-0.19,0.25l0.19,0.19V394.12z M330.86,389.34l-0.06,0.13l0.06,0.13l0.13-0.06
			L330.86,389.34z M330.86,398.65l-0.06,0.13h0.19L330.86,398.65z M331.43,404.32c-0.3,0-0.49,0.19-0.57,0.57
			C331.24,404.85,331.43,404.66,331.43,404.32z M330.86,413.95v0.13c0,0.21,0.17,0.32,0.51,0.32L330.86,413.95z M331.75,388.51
			l-0.45,0.38l0.06,0.06c0.26-0.13,0.47-0.28,0.64-0.45H331.75z M331.75,387.24l-0.25,0.32l0.06,0.13l0.26-0.32L331.75,387.24z
			 M331.49,407.38c0,0.34,0.17,0.51,0.51,0.51C332,407.55,331.83,407.38,331.49,407.38z M331.56,394.57v0.19l0.19-0.19H331.56z
			 M331.56,417.01v0.13H332l-0.32-0.19L331.56,417.01z M331.75,411.53l-0.13,0.25l0.13,0.26l0.19-0.26L331.75,411.53z M332.19,404.9
			h-0.45c0.13,0.17,0.28,0.26,0.45,0.26V404.9z M332,386.15v0.25h0.19v-0.25H332z M332.19,397.12l-0.13,0.13h0.19
			C332.26,397.2,332.24,397.16,332.19,397.12z M332.19,414.78l-0.13,0.13h0.19C332.26,414.86,332.24,414.82,332.19,414.78z
			 M332.19,415.67l-0.13,0.19l0.06,0.19l0.13-0.19L332.19,415.67z M332.64,391.32l-0.45,0.64h0.45V391.32z M332.64,395.65v-0.25
			c-0.26,0-0.4,0.09-0.45,0.25H332.64z M332.64,394.57l-0.19,0.19l0.19,0.19l0.19-0.19L332.64,394.57z M332.64,417.84l-0.13,0.13
			h0.19L332.64,417.84z M333.09,392.97l-0.45,0.32l0.45,0.19V392.97z M333.09,407.51l-0.25-0.13l-0.19,0.13l0.19,0.13L333.09,407.51
			z M332.9,414.4l-0.25,0.19h0.57L332.9,414.4z M332.64,415.22v0.26h0.83L332.64,415.22z M332.64,416.5v0.51l0.45-0.26L332.64,416.5
			z M332.9,386.79v0.19h0.19v-0.19H332.9z M332.9,405.98v0.25l0.32-0.25H332.9z M333.09,383.79l-0.13-0.06v0.19L333.09,383.79z
			 M333.09,409.87l-0.13,0.19l0.13,0.19V409.87z M333.21,382.96l0.25,0.13v-0.38L333.21,382.96z M333.21,385.07l0.25,0.26v-0.26
			H333.21z M333.47,408.79l-0.25,0.19h0.25V408.79z M333.21,418.86v0.26l0.25-0.26H333.21z M333.47,410.25l-0.19,0.25l0.19,0.19
			l0.19-0.19L333.47,410.25z M333.47,417.33l0.45,0.51l0.06-0.13C333.98,417.58,333.81,417.46,333.47,417.33z M333.73,390.87
			l-0.19,0.25c0.13,0.13,0.23,0.28,0.32,0.45L333.73,390.87z M333.92,394.12l-0.13-0.06v0.19L333.92,394.12z M333.92,418.22
			l-0.13,0.13l0.13,0.13l0.13-0.13L333.92,418.22z M333.92,407.51l0.45,0.38v-0.64L333.92,407.51z M334.36,416.75v-0.32
			c-0.09,0-0.23,0.11-0.45,0.32H334.36z M334.43,419.69l-0.51,0.51c0.38-0.25,0.59-0.42,0.64-0.51H334.43z M334.36,390.04l0.57-0.77
			c-0.04,0.04-0.19,0.12-0.45,0.22c-0.25,0.11-0.41,0.2-0.45,0.29L334.36,390.04z M334.11,385.45v0.32c0.17,0,0.32-0.11,0.45-0.32
			H334.11z M334.36,408.79v0.19l0.19-0.19H334.36z M334.55,412.04l0.19,0.19c0.17-0.04,0.25-0.21,0.25-0.51L334.55,412.04z
			 M335.13,391.7l-0.45,0.57c0.34,0,0.6-0.11,0.77-0.32L335.13,391.7z M334.75,421.47l0.83,0.25l0.51-0.25l-0.7-0.32L334.75,421.47z
			 M335.26,380.73l-0.32,0.19l0.13,0.06L335.26,380.73z M335.26,407.64l-0.13,0.38l0.06,0.32l0.13-0.32L335.26,407.64z
			 M336.15,381.31c-0.47,0-0.7,0.23-0.7,0.7C335.91,381.79,336.15,381.56,336.15,381.31z M335.45,389.34l0.13,0.64
			c0.26-0.59,0.49-0.93,0.7-1.02l-0.45-0.19L335.45,389.34z M335.57,384.05l-0.06,0.13l0.19-0.06L335.57,384.05z M335.57,411.34
			v0.19h0.32L335.57,411.34z M336.08,417.84l-0.13,0.13h0.19L336.08,417.84z M336.72,419.31l-0.45,0.19l1.79,0.19L336.72,419.31z
			 M336.53,389.85l-0.13,0.06l0.13,0.13V389.85z M336.72,410.51l-0.13-0.13v0.19L336.72,410.51z M336.91,412.23l-0.19,0.38h0.45
			L336.91,412.23z M337.3,421.73l-0.45,0.45l0.77-0.32L337.3,421.73z M337.1,419.69l-0.13-0.06l-0.06,0.06l0.13,0.13L337.1,419.69z
			 M337.36,380.73v0.26h0.25L337.36,380.73z M337.93,412.61l-0.57,0.45l0.13,0.06c0.34-0.21,0.51-0.66,0.51-1.34L337.93,412.61z
			 M337.81,410.89l-0.13,0.19h0.19L337.81,410.89z M337.81,414.97l-0.13,0.25l0.13,0.26l0.13-0.26L337.81,414.97z M337.81,420.2
			v0.64l0.19-0.25L337.81,420.2z M338,388.13l-0.13-0.13v0.19C337.91,388.19,337.95,388.17,338,388.13z M338,414.14l-0.13,0.13
			l0.13,0.13V414.14z M338.25,381.69l-0.19,0.19l0.19,0.13l0.13-0.13L338.25,381.69z M338.25,386.6l-0.19,0.19l0.19,0.19l0.13-0.19
			L338.25,386.6z M338.44,411.78l-0.13,0.26l0.13,0.19l0.19-0.19L338.44,411.78z M338.44,413.38v0.38c0.42-0.17,0.7-0.4,0.83-0.7
			L338.44,413.38z M338.7,384.88l-0.19,0.25l0.19,0.19l0.13-0.19L338.7,384.88z M338.7,387.68l-0.19,0.25l0.19,0.19l0.13-0.19
			L338.7,387.68z M338.7,421.47l-0.13,0.13l0.13,0.13V421.47z M338.89,386.41l0.25,0.19l0.45-0.51
			C339.29,386.09,339.06,386.19,338.89,386.41z M338.89,420.58l0.38,0.25l0.7-0.64L338.89,420.58z M339.08,386.98v0.25h0.06
			L339.08,386.98z M339.27,415.67l-0.06-0.06l-0.13,0.06l0.06,0.13L339.27,415.67z M340.17,416.31c-0.04,0.13-0.4,0.19-1.08,0.19
			L340.17,416.31z M339.53,380.99l-0.13,0.13h0.19L339.53,380.99z M339.4,384.75c0,0.47,0.19,0.7,0.57,0.7
			C339.85,384.98,339.65,384.75,339.4,384.75z M339.97,416.05l-0.19,0.25l0.19,0.19c0.04-0.04,0.07-0.05,0.1-0.03
			c0.02,0.02,0.01,0.05-0.03,0.1l0.19,0.19v-0.45L339.97,416.05z M340.23,384.05l-0.25,0.13h0.38L340.23,384.05z M340.36,422.81
			h-0.38c0.04,0.13,0.17,0.19,0.38,0.19V422.81z M340.61,419.37l0.7,0.45c0-0.34-0.17-0.51-0.51-0.51L340.61,419.37z M340.8,381.18
			l-0.13,0.26l0.13,0.25l0.19-0.25L340.8,381.18z M341.06,386.41l-0.13-0.06l-0.13,0.06l0.13,0.13L341.06,386.41z M340.93,417.33
			l0.32,0.7l0.19-0.32L340.93,417.33z M341.18,384.81c0,0.25,0.17,0.43,0.51,0.51C341.69,384.98,341.52,384.81,341.18,384.81z
			 M342.08,380.16l0.32,0.57l0.32-0.38l-0.13-0.51L342.08,380.16z M342.33,381.43l-0.13,0.13l0.13,0.13V381.43z M342.33,419.5v0.19
			h0.25L342.33,419.5z M342.59,418.67l-0.19,0.25l0.19,0.19V418.67z M344.12,380.92l-0.7,0.51c0.34,0,0.62-0.15,0.83-0.45
			L344.12,380.92z M343.61,382.26l-0.19,0.25h0.19V382.26z M343.8,419.5l-0.19-0.06l-0.19,0.06l0.19,0.13L343.8,419.5z
			 M344.05,420.39l-0.19,0.25l0.19,0.19l0.13-0.19L344.05,420.39z M344.18,422.75l0.26,0.45l0.32-0.25L344.18,422.75z
			 M344.25,421.41l0.83,0.32l-0.45-0.7L344.25,421.41z M345.58,420.58v-0.25c-0.17,0-0.34,0.09-0.51,0.25H345.58z"/>
	</g>
</g>
</svg>
